<svg width="34" height="34" viewBox="0 0 34 34" fill="none" xmlns="http://www.w3.org/2000/svg">
<g clip-path="url(#clip0_1_402)">
<path d="M18.6714 26.4233H15.3284L15.1434 27.4958C14.9448 28.6473 15.8315 29.6999 16.9999 29.6999C18.1683 29.6999 19.0549 28.6473 18.8563 27.4958L18.6714 26.4233Z" fill="#FFDD27"/>
<path d="M18.8827 27.7402C18.8794 27.6595 18.8707 27.5779 18.8565 27.4957L18.6715 26.4233L16.0495 25.8186L15.3286 26.4233L15.1436 27.4957C15.1294 27.5779 15.1208 27.6595 15.1174 27.7402H18.8827Z" fill="#F9C91A"/>
<path d="M25.1818 21.1901C24.9671 20.8181 24.854 20.3962 24.854 19.9665V15.677C24.854 12.1962 22.5897 9.24421 19.4537 8.21368C19.3583 8.18236 19.318 8.08271 19.3603 7.99162C19.5446 7.59436 19.6315 7.14302 19.5901 6.66853C19.4993 5.62874 18.6103 4.30054 17.0032 4.30054C15.5589 4.30054 14.3995 5.47284 14.3995 6.90095C14.3995 7.28332 14.4824 7.64671 14.6314 7.97405C14.6772 8.07478 14.6274 8.18665 14.5224 8.22155C11.3987 9.25904 9.14572 12.2049 9.14572 15.677L9.14578 19.9666C9.14578 20.3962 9.0327 20.8182 8.81793 21.1902L17.1742 22.8641L25.1818 21.1901ZM16.0781 6.90089C16.0781 6.39176 16.4908 5.97909 16.9999 5.97909C17.509 5.97909 17.9217 6.39182 17.9217 6.90089C17.9217 7.40995 17.5089 7.82268 16.9999 7.82268C16.4908 7.82275 16.0781 7.41001 16.0781 6.90089Z" fill="#FFDD27"/>
<path d="M22.2202 14.0308V18.3203C22.2202 18.7498 22.3333 19.1719 22.5481 19.5439L23.4985 21.1901L24.7665 21.6998L25.182 21.1901C24.9672 20.8181 24.8542 20.3962 24.8542 19.9666V15.6771C24.8542 12.3104 22.7359 9.43843 19.7595 8.32129C21.2747 9.75311 22.2202 11.7816 22.2202 14.0308Z" fill="#F9C91A"/>
<path d="M33.3637 16.368C33.3637 18.9706 32.4234 21.353 30.8644 23.1946C30.5557 23.5593 29.9985 23.5769 29.6606 23.2391L29.6561 23.2346C29.3518 22.9303 29.3373 22.4457 29.6148 22.1168C30.9261 20.563 31.7174 18.5566 31.7174 16.368C31.7174 14.1799 30.9259 12.173 29.6151 10.6191C29.3376 10.2903 29.3522 9.80586 29.6563 9.5016L29.6611 9.49681C29.999 9.15873 30.5564 9.17631 30.8652 9.54123C32.424 11.3834 33.3637 13.7661 33.3637 16.368Z" fill="#FFDD27"/>
<path d="M30.0711 16.3681C30.0711 18.0411 29.5037 19.5846 28.551 20.8157C28.2471 21.2083 27.6686 21.2473 27.3175 20.8962L27.3165 20.8952C27.023 20.6017 26.9963 20.1371 27.2501 19.8087C27.9862 18.8563 28.4248 17.6627 28.4248 16.3682C28.4248 15.0736 27.9862 13.8801 27.2501 12.9276C26.9963 12.5992 27.023 12.1345 27.3165 11.8411L27.3175 11.84C27.6686 11.489 28.2471 11.5279 28.551 11.9206C29.5037 13.1515 30.0711 14.6951 30.0711 16.3681Z" fill="#FFDD27"/>
<path d="M0.636353 16.368C0.636353 18.9706 1.57662 21.353 3.13564 23.1946C3.44438 23.5593 4.00157 23.5769 4.33946 23.2391L4.34393 23.2346C4.64826 22.9303 4.66277 22.4457 4.38522 22.1168C3.07396 20.563 2.28262 18.5566 2.28262 16.368C2.28262 14.1799 3.07409 12.173 4.38497 10.6191C4.66238 10.2903 4.64781 9.80586 4.34374 9.5016L4.33894 9.49681C4.00106 9.15873 3.44368 9.17631 3.13488 9.54123C1.57605 11.3834 0.636353 13.7661 0.636353 16.368H0.636353Z" fill="#FFDD27"/>
<path d="M3.92908 16.3681C3.92908 18.0411 4.49643 19.5846 5.44917 20.8157C5.75305 21.2083 6.33159 21.2473 6.68264 20.8962L6.68366 20.8952C6.97712 20.6017 7.00384 20.1371 6.75008 19.8087C6.01397 18.8563 5.57535 17.6627 5.57535 16.3682C5.57535 15.0736 6.01397 13.8801 6.75008 12.9276C7.00384 12.5992 6.97712 12.1345 6.68366 11.8411L6.68264 11.84C6.33159 11.489 5.75305 11.5279 5.44917 11.9206C4.49643 13.1515 3.92908 14.6951 3.92908 16.3681Z" fill="#FFDD27"/>
<path d="M17 9.99503C16.5226 9.99503 16.0646 9.88905 15.6386 9.6801C15.3937 9.55999 15.2926 9.26404 15.4127 9.01916C15.5328 8.77422 15.8287 8.67316 16.0736 8.79326C16.3631 8.93523 16.6747 9.00727 17 9.00727C17.3224 9.00727 17.6316 8.93651 17.919 8.79697C18.1642 8.67782 18.4598 8.78003 18.5789 9.02542C18.6981 9.27075 18.5959 9.56625 18.3505 9.6854C17.9276 9.89091 17.4732 9.99503 17 9.99503Z" fill="#F9C91A"/>
<path d="M25.1821 21.1902H8.81823L6.03884 26.0042C5.93126 26.1905 6.06575 26.4234 6.28084 26.4234H27.7196C27.9347 26.4234 28.0691 26.1905 27.9616 26.0042L25.1821 21.1902Z" fill="#F6E266"/>
<path d="M27.9614 26.004L25.1821 21.1899H23.4985L23.8822 21.8545C24.6321 23.1533 23.6948 24.7768 22.195 24.7768H6.74721L6.03872 26.004C5.93114 26.1902 6.06563 26.4231 6.28072 26.4231H27.7194C27.9346 26.4232 28.069 26.1904 27.9614 26.004Z" fill="#F4D820"/>
</g>
<defs>
<clipPath id="clip0_1_402">
<rect x="0.636353" y="0.636475" width="32.7273" height="32.7273" rx="15" fill="white"/>
</clipPath>
</defs>
</svg>
