<svg width="34" height="34" viewBox="0 0 34 34" fill="none" xmlns="http://www.w3.org/2000/svg">
<g clip-path="url(#clip0_1_373)">
<path d="M31.4796 7.18379L18.7824 6.15039L2.51996 7.18379V32.5628C2.51996 33.0052 2.87849 33.3637 3.32082 33.3637H30.6786C31.121 33.3637 31.4797 33.005 31.4797 32.5626L31.4796 7.18379Z" fill="#F6F9F9"/>
<path d="M31.4796 7.1839L28.8457 5.86694V25.941C28.8457 29.3131 26.112 32.0468 22.7399 32.0468H2.51996V32.5629C2.51996 33.0053 2.87849 33.3638 3.32082 33.3638H30.6786C31.121 33.3638 31.4796 33.0051 31.4796 32.5627V7.1839Z" fill="#E7ECF1"/>
<path d="M30.6786 2.50464H3.32095C2.87855 2.50464 2.51996 2.86323 2.51996 3.30563V7.18387H31.4796V3.30563C31.4796 2.86323 31.121 2.50464 30.6786 2.50464Z" fill="#61A2F9"/>
<path d="M30.6786 2.50464H28.8456V7.18387H31.4796V3.30563C31.4796 2.86323 31.121 2.50464 30.6786 2.50464Z" fill="#5490F9"/>
<path d="M6.61298 5.04481H6.16298C5.72224 5.04481 5.36493 4.6875 5.36493 4.24677V1.43452C5.36493 0.99379 5.72224 0.636475 6.16298 0.636475H6.61298C7.05371 0.636475 7.41102 0.99379 7.41102 1.43452V4.2467C7.41102 4.6875 7.05377 5.04481 6.61298 5.04481Z" fill="#DAE4EA"/>
<path d="M11.9189 5.04481H11.4689C11.0282 5.04481 10.6709 4.6875 10.6709 4.24677V1.43452C10.6709 0.99379 11.0282 0.636475 11.4689 0.636475H11.9189C12.3597 0.636475 12.717 0.99379 12.717 1.43452V4.2467C12.717 4.6875 12.3597 5.04481 11.9189 5.04481Z" fill="#DAE4EA"/>
<path d="M17.2249 5.04481H16.7749C16.3342 5.04481 15.9769 4.6875 15.9769 4.24677V1.43452C15.9769 0.99379 16.3342 0.636475 16.7749 0.636475H17.2249C17.6656 0.636475 18.023 0.99379 18.023 1.43452V4.2467C18.023 4.6875 17.6656 5.04481 17.2249 5.04481Z" fill="#DAE4EA"/>
<path d="M22.5308 5.04481H22.0808C21.6401 5.04481 21.2828 4.6875 21.2828 4.24677V1.43452C21.2828 0.99379 21.64 0.636475 22.0808 0.636475H22.5308C22.9716 0.636475 23.3289 0.99379 23.3289 1.43452V4.2467C23.3289 4.6875 22.9716 5.04481 22.5308 5.04481Z" fill="#DAE4EA"/>
<path d="M27.8362 5.04481H27.3862C26.9455 5.04481 26.5881 4.6875 26.5881 4.24677V1.43452C26.5881 0.99379 26.9454 0.636475 27.3862 0.636475H27.8362C28.2769 0.636475 28.6342 0.99379 28.6342 1.43452V4.2467C28.6342 4.6875 28.2769 5.04481 27.8362 5.04481Z" fill="#DAE4EA"/>
<path d="M11.3928 13.5395V12.3812C11.3928 12.2384 11.5086 12.1226 11.6515 12.1226H26.2817C26.4246 12.1226 26.5404 12.2384 26.5404 12.3812V13.5395C26.5404 13.6824 26.4246 13.7982 26.2817 13.7982H11.6515C11.5086 13.7982 11.3928 13.6824 11.3928 13.5395Z" fill="#DAE4EA"/>
<path d="M11.3928 16.8909V15.7326C11.3928 15.5897 11.5086 15.4739 11.6515 15.4739H26.2817C26.4246 15.4739 26.5404 15.5897 26.5404 15.7326V16.8909C26.5404 17.0337 26.4246 17.1496 26.2817 17.1496H11.6515C11.5086 17.1496 11.3928 17.0337 11.3928 16.8909Z" fill="#DAE4EA"/>
<path d="M11.3928 20.2423V19.084C11.3928 18.9411 11.5086 18.8253 11.6515 18.8253H26.2817C26.4246 18.8253 26.5404 18.9411 26.5404 19.084V20.2423C26.5404 20.3852 26.4246 20.501 26.2817 20.501H11.6515C11.5086 20.501 11.3928 20.3852 11.3928 20.2423Z" fill="#DAE4EA"/>
<path d="M11.3928 23.5936V22.4353C11.3928 22.2925 11.5086 22.1766 11.6515 22.1766H26.2817C26.4246 22.1766 26.5404 22.2925 26.5404 22.4353V23.5936C26.5404 23.7365 26.4246 23.8523 26.2817 23.8523H11.6515C11.5086 23.8524 11.3928 23.7366 11.3928 23.5936Z" fill="#DAE4EA"/>
<path d="M11.3928 26.9451V25.7868C11.3928 25.6439 11.5086 25.5281 11.6515 25.5281H26.2817C26.4246 25.5281 26.5404 25.6439 26.5404 25.7868V26.9451C26.5404 27.0879 26.4246 27.2038 26.2817 27.2038H11.6515C11.5086 27.2038 11.3928 27.0879 11.3928 26.9451Z" fill="#DAE4EA"/>
<path d="M7.45844 13.5395V12.3812C7.45844 12.2384 7.57426 12.1226 7.71712 12.1226H9.15885C9.30171 12.1226 9.41754 12.2384 9.41754 12.3812V13.5395C9.41754 13.6824 9.30171 13.7982 9.15885 13.7982H7.71712C7.57426 13.7982 7.45844 13.6824 7.45844 13.5395Z" fill="#DAE4EA"/>
<path d="M7.45844 16.8909V15.7326C7.45844 15.5897 7.57426 15.4739 7.71712 15.4739H9.15885C9.30171 15.4739 9.41754 15.5897 9.41754 15.7326V16.8909C9.41754 17.0337 9.30171 17.1496 9.15885 17.1496H7.71712C7.57426 17.1496 7.45844 17.0337 7.45844 16.8909Z" fill="#DAE4EA"/>
<path d="M7.45844 20.2423V19.084C7.45844 18.9411 7.57426 18.8253 7.71712 18.8253H9.15885C9.30171 18.8253 9.41754 18.9411 9.41754 19.084V20.2423C9.41754 20.3852 9.30171 20.501 9.15885 20.501H7.71712C7.57426 20.501 7.45844 20.3852 7.45844 20.2423Z" fill="#DAE4EA"/>
<path d="M7.45844 23.5936V22.4353C7.45844 22.2925 7.57426 22.1766 7.71712 22.1766H9.15885C9.30171 22.1766 9.41754 22.2925 9.41754 22.4353V23.5936C9.41754 23.7365 9.30171 23.8523 9.15885 23.8523H7.71712C7.57426 23.8524 7.45844 23.7366 7.45844 23.5936Z" fill="#DAE4EA"/>
<path d="M7.45844 26.9451V25.7868C7.45844 25.6439 7.57426 25.5281 7.71712 25.5281H9.15885C9.30171 25.5281 9.41754 25.6439 9.41754 25.7868V26.9451C9.41754 27.0879 9.30171 27.2038 9.15885 27.2038H7.71712C7.57426 27.2038 7.45844 27.0879 7.45844 26.9451Z" fill="#DAE4EA"/>
</g>
<defs>
<clipPath id="clip0_1_373">
<rect x="0.636353" y="0.636475" width="32.7273" height="32.7273" fill="white"/>
</clipPath>
</defs>
</svg>
