<svg width="34" height="29" viewBox="0 0 34 29" fill="none" xmlns="http://www.w3.org/2000/svg">
<path d="M31.3774 5.67164L13.7004 4.6709L0.635986 5.67164V25.3877C0.635986 25.7313 0.914552 26.0098 1.25812 26.0098H30.7554C31.0989 26.0098 31.3774 25.7313 31.3774 25.3878V5.67164H31.3774Z" fill="#F6F9F9"/>
<path d="M1.25812 26.01H30.7554C31.099 26.01 31.3774 25.7315 31.3774 25.388V5.67178L28.7435 5.53735V15.8487C28.7435 17.0549 27.6764 17.9829 26.4822 17.8136C26.2306 17.7779 25.9729 17.7612 25.7106 17.7649C23.0469 17.8023 20.8699 19.9815 20.8352 22.6453C20.8349 22.6639 20.8348 22.6826 20.8347 22.7013C20.8325 23.8002 19.9495 24.6931 18.8506 24.6931H0.635986V25.3879C0.635986 25.7314 0.914552 26.01 1.25812 26.01Z" fill="#E7ECF1"/>
<path d="M28.4391 17.9011V19.6684C28.4391 19.7367 28.3837 19.7921 28.3154 19.7921H25.8059C25.7375 19.7921 25.6821 19.7367 25.6821 19.6684V17.9011C25.6821 17.8328 25.7375 17.7774 25.8059 17.7774H28.3154C28.3837 17.7774 28.4391 17.8328 28.4391 17.9011ZM28.4391 14.9586C28.4391 14.8903 28.3837 14.8349 28.3154 14.8349H25.8059C25.7375 14.8349 25.6821 14.8903 25.6821 14.9586V16.7259C25.6821 16.7942 25.7375 16.8496 25.8059 16.8496H28.3154C28.3837 16.8496 28.4391 16.7942 28.4391 16.7259V14.9586ZM28.4391 12.0161C28.4391 11.9478 28.3837 11.8924 28.3154 11.8924H25.8059C25.7375 11.8924 25.6821 11.9478 25.6821 12.0161V13.7834C25.6821 13.8517 25.7375 13.907 25.8059 13.907H28.3154C28.3837 13.907 28.4391 13.8517 28.4391 13.7834V12.0161ZM28.4391 9.07364C28.4391 9.00531 28.3837 8.94995 28.3154 8.94995H25.8059C25.7375 8.94995 25.6821 9.00537 25.6821 9.07364V10.8409C25.6821 10.9092 25.7375 10.9646 25.8059 10.9646H28.3154C28.3837 10.9646 28.4391 10.9092 28.4391 10.8409V9.07364Z" fill="#DA4A54"/>
<path d="M25.8059 19.7917H28.3154C28.3837 19.7917 28.4391 19.7364 28.4391 19.6681V17.9008C28.4391 17.8325 28.3837 17.7771 28.3154 17.7771H27.2301C26.993 17.835 26.7404 17.8498 26.4818 17.8132C26.3706 17.7974 26.2581 17.7853 26.1446 17.7771H25.8059C25.7375 17.7771 25.6821 17.8325 25.6821 17.9008V19.6681C25.6822 19.7363 25.7376 19.7917 25.8059 19.7917Z" fill="#D82E3D"/>
<path d="M21.0697 13.7834C21.0697 13.8518 21.0143 13.9071 20.946 13.9071H18.4364C18.3681 13.9071 18.3127 13.8518 18.3127 13.7834V12.0161C18.3127 11.9478 18.3681 11.8925 18.4364 11.8925H20.946C21.0143 11.8925 21.0697 11.9479 21.0697 12.0161V13.7834ZM21.0697 9.0737C21.0697 9.00537 21.0143 8.95001 20.946 8.95001H18.4364C18.3681 8.95001 18.3127 9.00543 18.3127 9.0737V10.841C18.3127 10.9093 18.3681 10.9647 18.4364 10.9647H20.946C21.0143 10.9647 21.0697 10.9093 21.0697 10.841V9.0737ZM20.946 17.7774H18.4365C18.3682 17.7774 18.3128 17.8328 18.3128 17.9011V19.6684C18.3128 19.7367 18.3682 19.7921 18.4365 19.7921H20.946C21.0143 19.7921 21.0698 19.7367 21.0698 19.6684V17.9012C21.0697 17.8328 21.0143 17.7774 20.946 17.7774ZM7.37008 10.9647H9.89181C9.96014 10.9647 10.0155 10.9093 10.0155 10.841V9.0737C10.0155 9.00537 9.96014 8.95001 9.89181 8.95001H7.37008C7.30175 8.95001 7.2464 9.00543 7.2464 9.0737V10.841C7.2464 10.9092 7.30175 10.9647 7.37008 10.9647ZM7.2464 13.7834C7.2464 13.8518 7.30175 13.9071 7.37008 13.9071H9.89181C9.96014 13.9071 10.0155 13.8518 10.0155 13.7834V12.0161C10.0155 11.9478 9.96014 11.8925 9.89181 11.8925H7.37008C7.30175 11.8925 7.2464 11.9479 7.2464 12.0161V13.7834ZM21.0697 14.9587C21.0697 14.8903 21.0143 14.835 20.946 14.835H18.4364C18.3681 14.835 18.3127 14.8903 18.3127 14.9587V16.7259C18.3127 16.7943 18.3681 16.8496 18.4364 16.8496H20.946C21.0143 16.8496 21.0697 16.7943 21.0697 16.7259V14.9587ZM7.2464 16.7259C7.2464 16.7943 7.30175 16.8496 7.37008 16.8496H9.89181C9.96014 16.8496 10.0155 16.7943 10.0155 16.7259V14.9587C10.0155 14.8903 9.96014 14.835 9.89181 14.835H7.37008C7.30175 14.835 7.2464 14.8903 7.2464 14.9587V16.7259ZM24.6308 17.7774H22.1213C22.0529 17.7774 21.9976 17.8328 21.9976 17.9011V19.6684C21.9976 19.7367 22.0529 19.7921 22.1213 19.7921H24.6308C24.6991 19.7921 24.7545 19.7367 24.7545 19.6684V17.9012C24.7545 17.8328 24.6991 17.7774 24.6308 17.7774ZM24.7545 14.9587C24.7545 14.8903 24.6991 14.835 24.6308 14.835H22.1213C22.0529 14.835 21.9976 14.8903 21.9976 14.9587V16.7259C21.9976 16.7943 22.0529 16.8496 22.1213 16.8496H24.6308C24.6991 16.8496 24.7545 16.7943 24.7545 16.7259V14.9587ZM24.7545 12.0161C24.7545 11.9478 24.6991 11.8925 24.6308 11.8925H22.1213C22.0529 11.8925 21.9976 11.9479 21.9976 12.0161V13.7834C21.9976 13.8518 22.0529 13.9071 22.1213 13.9071H24.6308C24.6991 13.9071 24.7545 13.8518 24.7545 13.7834V12.0161ZM24.7545 9.0737C24.7545 9.00537 24.6991 8.95001 24.6308 8.95001H22.1213C22.0529 8.95001 21.9976 9.00543 21.9976 9.0737V10.841C21.9976 10.9093 22.0529 10.9647 22.1213 10.9647H24.6308C24.6991 10.9647 24.7545 10.9093 24.7545 10.841V9.0737ZM7.2464 22.608C7.2464 22.6763 7.30175 22.7316 7.37008 22.7316H9.89181C9.96014 22.7316 10.0155 22.6763 10.0155 22.608V20.8436C10.0155 20.7753 9.96014 20.7199 9.89181 20.7199H7.37008C7.30175 20.7199 7.2464 20.7753 7.2464 20.8436V22.608ZM14.6281 19.6684C14.6281 19.7367 14.6835 19.7921 14.7517 19.7921H17.2613C17.3296 19.7921 17.3849 19.7367 17.3849 19.6684V17.9012C17.3849 17.8328 17.3295 17.7775 17.2613 17.7775H14.7517C14.6834 17.7775 14.6281 17.8328 14.6281 17.9012V19.6684ZM14.7518 13.9071H17.2613C17.3297 13.9071 17.385 13.8518 17.385 13.7834V12.0161C17.385 11.9478 17.3296 11.8925 17.2613 11.8925H14.7518C14.6835 11.8925 14.6281 11.9479 14.6281 12.0161V13.7834C14.6281 13.8518 14.6835 13.9071 14.7518 13.9071ZM14.6281 16.7259C14.6281 16.7943 14.6835 16.8496 14.7517 16.8496H17.2613C17.3296 16.8496 17.3849 16.7943 17.3849 16.7259V14.9587C17.3849 14.8903 17.3295 14.835 17.2613 14.835H14.7517C14.6834 14.835 14.6281 14.8903 14.6281 14.9587V16.7259ZM14.6281 22.608C14.6281 22.6763 14.6835 22.7316 14.7517 22.7316H17.2613C17.3296 22.7316 17.3849 22.6763 17.3849 22.608V20.8436C17.3849 20.7753 17.3295 20.7199 17.2613 20.7199H14.7517C14.6834 20.7199 14.6281 20.7753 14.6281 20.8436V22.608ZM17.2613 8.94995H14.7517C14.6834 8.94995 14.6281 9.00537 14.6281 9.07364V10.8409C14.6281 10.9092 14.6835 10.9646 14.7517 10.9646H17.2613C17.3296 10.9646 17.3849 10.9092 17.3849 10.8409V9.07364C17.385 9.00537 17.3296 8.94995 17.2613 8.94995ZM7.2464 19.6684C7.2464 19.7367 7.30175 19.7921 7.37008 19.7921H9.89181C9.96014 19.7921 10.0155 19.7367 10.0155 19.6684V17.9012C10.0155 17.8328 9.96014 17.7775 9.89181 17.7775H7.37008C7.30175 17.7775 7.2464 17.8328 7.2464 17.9012V19.6684ZM10.9434 22.608C10.9434 22.6763 10.9987 22.7316 11.0671 22.7316H13.5766C13.6449 22.7316 13.7003 22.6763 13.7003 22.608V20.8436C13.7003 20.7753 13.6449 20.7199 13.5766 20.7199H11.0671C10.9987 20.7199 10.9434 20.7753 10.9434 20.8436V22.608ZM10.9434 13.7834C10.9434 13.8518 10.9987 13.9071 11.0671 13.9071H13.5766C13.6449 13.9071 13.7003 13.8518 13.7003 13.7834V12.0161C13.7003 11.9478 13.6449 11.8925 13.5766 11.8925H11.0671C10.9987 11.8925 10.9434 11.9479 10.9434 12.0161V13.7834ZM11.0671 10.9647H13.5766C13.6449 10.9647 13.7003 10.9093 13.7003 10.841V9.0737C13.7003 9.00537 13.6449 8.95001 13.5766 8.95001H11.0671C10.9987 8.95001 10.9434 9.00543 10.9434 9.0737V10.841C10.9434 10.9092 10.9987 10.9647 11.0671 10.9647ZM10.9434 16.7259C10.9434 16.7943 10.9987 16.8496 11.0671 16.8496H13.5766C13.6449 16.8496 13.7003 16.7943 13.7003 16.7259V14.9587C13.7003 14.8903 13.6449 14.835 13.5766 14.835H11.0671C10.9987 14.835 10.9434 14.8903 10.9434 14.9587V16.7259ZM10.9434 19.6684C10.9434 19.7367 10.9987 19.7921 11.0671 19.7921H13.5766C13.6449 19.7921 13.7003 19.7367 13.7003 19.6684V17.9012C13.7003 17.8328 13.6449 17.7775 13.5766 17.7775H11.0671C10.9987 17.7775 10.9434 17.8328 10.9434 17.9012V19.6684Z" fill="#DAE4EA"/>
<path d="M21.9974 19.6681C21.9974 19.7364 22.0528 19.7918 22.1211 19.7918H24.6306C24.699 19.7918 24.7543 19.7364 24.7543 19.6681V17.9009C24.7543 17.8912 24.7532 17.8818 24.7511 17.8728C23.658 18.1071 22.6949 18.7065 21.9974 19.5353V19.6681H21.9974Z" fill="#C6D0DA"/>
<path d="M30.7552 2.03638H1.25825C0.914552 2.03638 0.635986 2.31501 0.635986 2.65864V5.67153H31.3774V2.65864C31.3774 2.31501 31.0988 2.03638 30.7552 2.03638Z" fill="#61A2F9"/>
<path d="M3.57367 13.7833V12.016C3.57367 11.9477 3.62902 11.8923 3.69736 11.8923H6.1946C6.26293 11.8923 6.31828 11.9478 6.31828 12.016V13.7833C6.31828 13.8516 6.26287 13.907 6.1946 13.907H3.69742C3.62909 13.907 3.57367 13.8516 3.57367 13.7833ZM3.57367 16.7258C3.57367 16.7941 3.62902 16.8495 3.69736 16.8495H6.1946C6.26293 16.8495 6.31828 16.7941 6.31828 16.7258V14.9585C6.31828 14.8902 6.26287 14.8348 6.1946 14.8348H3.69742C3.62909 14.8348 3.57373 14.8902 3.57373 14.9585V16.7258H3.57367ZM3.57367 22.6078C3.57367 22.6762 3.62902 22.7315 3.69736 22.7315H6.1946C6.26293 22.7315 6.31828 22.6762 6.31828 22.6078V20.8435C6.31828 20.7752 6.26287 20.7198 6.1946 20.7198H3.69742C3.62909 20.7198 3.57373 20.7752 3.57373 20.8435V22.6078H3.57367ZM3.57367 19.6683C3.57367 19.7366 3.62902 19.7919 3.69736 19.7919H6.1946C6.26293 19.7919 6.31828 19.7366 6.31828 19.6683V17.901C6.31828 17.8327 6.26287 17.7774 6.1946 17.7774H3.69742C3.62909 17.7774 3.57373 17.8327 3.57373 17.901V19.6683H3.57367Z" fill="#DA4A54"/>
<path d="M4.06398 4.00985H3.2814C2.93898 4.00985 2.66144 3.73224 2.66144 3.38989V1.3016C2.66144 0.959183 2.93904 0.681641 3.2814 0.681641H4.06398C4.4064 0.681641 4.68394 0.959247 4.68394 1.3016V3.38982C4.68394 3.73224 4.4064 4.00985 4.06398 4.00985Z" fill="white"/>
<path d="M8.12345 4.00985H7.40268C7.06026 4.00985 6.78271 3.73224 6.78271 3.38989V1.3016C6.78271 0.959183 7.06032 0.681641 7.40268 0.681641H8.12338C8.4658 0.681641 8.74335 0.959247 8.74335 1.3016V3.38982C8.74341 3.73224 8.4658 4.00985 8.12345 4.00985Z" fill="white"/>
<path d="M12.2449 4.00985H11.5242C11.1818 4.00985 10.9042 3.73224 10.9042 3.38989V1.3016C10.9042 0.959183 11.1818 0.681641 11.5242 0.681641H12.2449C12.5873 0.681641 12.8649 0.959247 12.8649 1.3016V3.38982C12.8649 3.73224 12.5873 4.00985 12.2449 4.00985Z" fill="white"/>
<path d="M16.3678 4.00985H15.6471C15.3046 4.00985 15.0271 3.73224 15.0271 3.38989V1.3016C15.0271 0.959183 15.3047 0.681641 15.6471 0.681641H16.3678C16.7102 0.681641 16.9877 0.959247 16.9877 1.3016V3.38982C16.9877 3.73224 16.7102 4.00985 16.3678 4.00985Z" fill="white"/>
<path d="M20.4893 4.00985H19.7686C19.4262 4.00985 19.1487 3.73224 19.1487 3.38989V1.3016C19.1487 0.959183 19.4262 0.681641 19.7686 0.681641H20.4893C20.8318 0.681641 21.1093 0.959247 21.1093 1.3016V3.38982C21.1094 3.73224 20.8318 4.00985 20.4893 4.00985Z" fill="white"/>
<path d="M24.6109 4.00985H23.8902C23.5477 4.00985 23.2702 3.73224 23.2702 3.38989V1.3016C23.2702 0.959183 23.5478 0.681641 23.8902 0.681641H24.6109C24.9533 0.681641 25.2308 0.959247 25.2308 1.3016V3.38982C25.2309 3.73224 24.9533 4.00985 24.6109 4.00985Z" fill="white"/>
<path d="M30.7554 2.03638H29.3528L28.9811 3.018C28.9811 3.35678 28.7437 4.0096 28.7437 4.0096V5.67147H31.3776V2.65858C31.3776 2.31494 31.099 2.03638 30.7554 2.03638Z" fill="#5490F9"/>
<path d="M28.7327 4.00985H28.012C27.6696 4.00985 27.392 3.73224 27.392 3.38989V1.3016C27.392 0.959183 27.6696 0.681641 28.012 0.681641H28.7327C29.0751 0.681641 29.3527 0.959247 29.3527 1.3016V3.38982C29.3527 3.73224 29.0751 4.00985 28.7327 4.00985Z" fill="white"/>
<path d="M28.4159 28.9753C31.1481 28.9753 33.3629 26.7604 33.3629 24.0283C33.3629 21.2961 31.1481 19.0813 28.4159 19.0813C25.6838 19.0813 23.4689 21.2961 23.4689 24.0283C23.4689 26.7604 25.6838 28.9753 28.4159 28.9753Z" fill="#80E29D"/>
<path d="M29.2107 19.1445C30.1469 20.0446 30.7295 21.3098 30.7295 22.7111C30.7295 25.4433 28.5147 27.6581 25.7826 27.6581C25.5122 27.6581 25.247 27.6364 24.9883 27.5947C25.8775 28.4496 27.0856 28.9751 28.4165 28.9751C31.1486 28.9751 33.3635 26.7603 33.3635 24.0281C33.3635 21.5663 31.5652 19.5245 29.2107 19.1445Z" fill="#78D090"/>
<path d="M31.2237 22.9656L30.2888 22.0307C30.1905 21.9325 30.0312 21.9325 29.933 22.0307L28.1244 23.8393C28.0262 23.9375 27.8669 23.9375 27.7686 23.8393L26.9 22.9707C26.8018 22.8724 26.6425 22.8724 26.5442 22.9707L25.6093 23.9056C25.5111 24.0038 25.5111 24.1631 25.6093 24.2613L27.7686 26.4206C27.8669 26.5189 28.0262 26.5189 28.1244 26.4206L31.2237 23.3214C31.3219 23.2232 31.3219 23.0639 31.2237 22.9656Z" fill="#F6F9F9"/>
<path d="M30.7236 22.4656C30.7275 22.5469 30.7296 22.6289 30.7296 22.7112C30.7296 23.1497 30.6725 23.5749 30.5654 23.9797L31.2236 23.3215C31.3219 23.2232 31.3219 23.0639 31.2236 22.9657L30.7236 22.4656Z" fill="#E7ECF1"/>
</svg>
