<svg width="398" height="589" viewBox="0 0 398 589" fill="none" xmlns="http://www.w3.org/2000/svg">
<g clip-path="url(#clip0_12_5)">
<path opacity="0.4" d="M352 110.032C363.784 109.849 384.307 110.361 372.124 113.867C356.895 118.251 346.017 129.209 359.07 127.017C369.513 125.264 384.089 123.365 390.072 122.634C396.055 121.356 404.43 121.1 390.072 130.305C372.124 141.811 361.79 151.673 368.86 152.221C375.931 152.769 379.738 148.934 377.019 158.248C374.299 167.563 371.036 174.138 386.265 184" stroke="#FF553E" stroke-width="2"/>
<path opacity="0.3" d="M344.134 462.049C343.879 461.56 343.275 461.37 342.785 461.625C342.295 461.88 342.105 462.484 342.361 462.974L344.134 462.049ZM324.958 499.369L324.759 498.389L324.958 499.369ZM285.379 526.519C284.948 526.865 284.878 527.494 285.224 527.925L290.852 534.948C291.198 535.379 291.827 535.448 292.258 535.103C292.689 534.757 292.758 534.128 292.413 533.697L287.41 527.455L293.652 522.452C294.083 522.106 294.153 521.477 293.807 521.046C293.462 520.615 292.833 520.546 292.402 520.891L285.379 526.519ZM342.361 462.974C344.9 467.845 347.013 475.424 345.263 482.379C344.393 485.833 342.57 489.148 339.343 491.936C336.108 494.731 331.418 497.038 324.759 498.389L325.157 500.349C332.067 498.947 337.097 496.52 340.65 493.45C344.211 490.373 346.24 486.69 347.202 482.867C349.115 475.268 346.805 467.171 344.134 462.049L342.361 462.974ZM324.759 498.389C316.452 500.074 310.657 498.873 306.929 496.455C303.206 494.041 301.42 490.338 301.245 486.729C301.069 483.098 302.522 479.635 305.192 477.665C307.819 475.726 311.825 475.09 317.079 477.494L317.911 475.675C312.152 473.04 307.343 473.592 304.005 476.055C300.709 478.487 299.045 482.641 299.248 486.826C299.452 491.033 301.542 495.346 305.84 498.133C310.133 500.918 316.505 502.104 325.157 500.349L324.759 498.389ZM317.079 477.494C322.248 479.859 325.161 484.241 326.081 489.506C327.005 494.8 325.905 500.988 322.979 506.8C317.135 518.408 304.126 528.291 286.114 526.306L285.894 528.294C304.848 530.383 318.599 519.948 324.765 507.699C327.845 501.583 329.063 494.959 328.051 489.162C327.034 483.336 323.756 478.35 317.911 475.675L317.079 477.494Z" fill="#FF553E"/>
<path opacity="0.1" d="M0 550.14C9.44762 536.298 10.8254 513.612 10.3333 504C23.3238 516.688 44.2857 527.55 53.1429 531.395C41.3333 541.777 40.3492 558.791 41.3333 566C24.8 553.312 6.88889 550.14 0 550.14Z" stroke="#FF553E" stroke-width="2"/>
</g>
<defs>

</defs>
</svg>
