<svg width="64" height="64" viewBox="0 0 64 64" fill="none" xmlns="http://www.w3.org/2000/svg">
<path d="M25.0816 22.6403L29.352 26.8794C30.8158 28.337 33.1833 28.337 34.6471 26.8794L38.1538 23.3978L38.8921 22.6149L59.4106 2.09409C60.1871 1.31756 59.6397 0 58.5451 0H51.3343C49.0177 0 46.7902 0.922925 45.1546 2.55873L31.9996 15.7216L27.6527 11.3743C26.0489 9.77028 23.8723 8.86645 21.6066 8.86645H11.3601L25.107 22.6149L25.0816 22.6403Z" fill="#FF0C5D"/>
<path d="M12.7354 64.0001C15.0074 64.0001 17.184 63.0962 18.7878 61.4923L32.0001 48.2785L36.2897 52.5685C37.9317 54.2107 40.1592 55.1336 42.4822 55.1336H52.6396L38.8927 41.3852L38.9181 41.3597L34.6541 37.1207C33.1839 35.6631 30.8164 35.6631 29.3526 37.1207L25.8459 40.6023L25.1076 41.3852L4.57635 61.9123C3.80627 62.6825 4.3536 64.0001 5.4419 64.0001" fill="#FFC005"/>
<path d="M15.7198 32.0032L11.4048 36.3186C9.78194 37.9417 8.86548 40.1504 8.86548 42.4481V52.6449L22.6124 38.8965L22.6378 38.9219L26.8892 34.6383C28.3466 33.168 28.3466 30.7938 26.8765 29.3299L2.07476 4.56364C1.30468 3.79984 0 4.34087 0 5.42292V12.6727C0 15.0022 0.903732 17.1854 2.55209 18.834L15.7198 32.0032Z" fill="#221ECA"/>
<path d="M61.4797 45.1978L48.3502 32.0032L52.7097 27.6241C54.2881 26.0392 55.1727 23.8878 55.1727 21.6537V11.3488L41.4831 25.1035L41.4576 25.0781L37.2699 29.3172C35.8252 30.7747 35.8188 33.1234 37.2508 34.5937L41.464 38.9219L41.4894 38.8965L61.9698 59.4745C62.7208 60.2256 64 59.6973 64 58.6344V51.2955C63.9936 48.9914 63.1026 46.8273 61.4797 45.1978Z" fill="#221ECA"/>
</svg>
