<svg width="74" height="64" viewBox="0 0 74 64" fill="none" xmlns="http://www.w3.org/2000/svg">
<path d="M16.8825 62.8708C13.2484 61.548 10.2066 59.5837 7.70986 56.9579C5.21985 54.3455 3.33552 51.0316 2.07032 46.9828C0.7984 42.9272 0.152344 38.1301 0.152344 32.598C0.152344 27.0324 0.7984 22.2019 2.06359 18.1129C3.32879 14.024 5.21312 10.6767 7.70313 8.03088C10.2066 5.37173 13.2484 3.38071 16.8825 2.04446C20.1599 0.835144 23.9286 0.167016 28.1952 0.0467529C27.4953 0.29396 26.8089 0.55453 26.1494 0.848507C22.9864 2.23153 20.2339 4.14906 17.9324 6.56768C15.2876 9.34042 13.3023 12.8013 11.9631 16.9237C10.6238 21.0393 9.92395 25.8098 9.84319 31.235C9.83646 31.5757 9.83646 31.9298 9.83646 32.2973C9.83646 32.6581 9.84319 33.0122 9.84319 33.3596V33.3663C9.89703 36.1791 10.1729 38.7247 10.6575 40.9963C10.8392 41.8849 11.0411 42.7401 11.2834 43.5419C12.0438 46.034 13.1206 48.1186 14.554 49.7689C16.1355 51.5928 18.215 52.9558 20.7319 53.8444C21.8962 54.252 23.1614 54.566 24.5073 54.7865C24.6083 54.7999 24.7092 54.8199 24.8034 54.8333C24.864 54.8399 24.9246 54.8466 24.9784 54.86C26.3849 55.0604 27.8722 55.1606 29.4672 55.1673H32.6571C33.0474 55.1673 33.4377 55.1606 33.8146 55.1473C34.9788 55.1206 36.0825 55.0203 37.1323 54.8734H37.1391C39.3801 54.5593 41.3788 53.9847 43.1286 53.1295C44.885 52.2743 46.3858 51.1318 47.6038 49.7288C49.2122 47.8914 50.3765 45.5196 51.1437 42.6466C51.9109 39.7737 52.2877 36.3929 52.2877 32.5044C52.2877 28.6226 51.9176 25.2419 51.1571 22.3622C50.3967 19.4893 49.2459 17.1041 47.6711 15.24C46.4598 13.8236 44.9658 12.6744 43.2026 11.8125C43.1353 11.7858 43.068 11.759 43.0007 11.7256H44.4207C45.982 11.7256 47.4289 11.8325 48.7614 12.0196C48.795 12.0263 48.8354 12.0263 48.8758 12.033C48.9632 12.0463 49.0575 12.0664 49.145 12.0797C49.367 12.1131 49.5757 12.1532 49.791 12.1933C49.9189 12.22 50.04 12.2401 50.1679 12.2668C50.2015 12.2735 50.2352 12.2869 50.2756 12.2935L50.3496 12.3069C50.4169 12.3203 50.4774 12.3336 50.5313 12.3537C50.6524 12.3804 50.7735 12.4071 50.888 12.4405C51.2043 12.5207 51.5138 12.6076 51.8167 12.7011C51.8772 12.7211 51.9311 12.7345 51.9916 12.7545C52.1935 12.8214 52.3954 12.8882 52.5906 12.955C54.8114 13.7634 56.5611 14.9527 57.9071 16.5295C59.1857 18.0328 60.2154 20.0438 60.9355 22.556C61.097 23.1172 61.245 23.7185 61.3729 24.3332C61.7161 26.077 61.9382 28.0213 62.019 30.1793C62.0257 30.3998 62.0324 30.6069 62.0392 30.8007V30.8074C62.0459 30.9343 62.0459 31.088 62.0459 31.2617C62.0459 31.4421 62.0392 31.6358 62.0392 31.9566C62.0392 32.3173 62.0459 32.8318 62.0459 33.2794V33.3663C62.0459 33.54 62.0459 33.7004 62.0392 33.834V33.8407C62.0324 34.0411 62.0257 34.2482 62.019 34.4754C61.8642 39.493 61.1441 43.8693 59.8856 47.5974C58.6272 51.3256 56.8303 54.4057 54.5018 56.8844C52.3752 59.1427 49.8583 60.9132 46.9241 62.2161" fill="#7188FF" fill-opacity="0.9"/>
<path d="M47.7575 64C50.9205 62.5969 53.6662 60.6594 55.9746 58.2073C58.5251 55.5081 60.4633 52.1541 61.7891 48.1988C63.1283 44.2435 63.8618 39.6801 64.0301 34.5155V34.5088C64.0368 34.3151 64.0435 34.1013 64.0503 33.8674C64.0503 33.8607 64.0503 33.8607 64.0503 33.8607C64.057 33.6737 64.057 33.5066 64.057 33.3596V33.2527C64.057 32.7917 64.0503 32.2706 64.0503 31.9298C64.0503 31.6292 64.057 31.4622 64.057 31.2484V31.2216C64.057 31.0813 64.057 30.9143 64.0503 30.7272V30.7205C64.0503 30.7205 64.0503 30.7205 64.0503 30.7139C64.0435 30.4867 64.0368 30.2796 64.0301 30.0858V30.0724C63.9022 26.7385 63.4648 23.8321 62.711 21.34C61.9573 18.8479 60.8738 16.7633 59.4404 15.1131C57.8589 13.2891 55.7794 11.9328 53.2625 11.0375C50.7523 10.1489 47.8046 9.72126 44.4263 9.71458H41.2364C39.6818 9.71458 38.2147 9.8148 36.8486 10.0086H36.8419C34.6009 10.3226 32.6021 10.8972 30.8524 11.7524C29.1027 12.6076 27.5952 13.7501 26.3771 15.1531C24.7754 16.9905 23.6044 19.3624 22.8373 22.2353C22.0701 25.1083 21.6932 28.489 21.6932 32.3775C21.6932 36.2593 22.0633 39.64 22.8238 42.5197C23.5843 45.3926 24.735 47.7778 26.3165 49.6419C27.5279 51.0584 29.0219 52.2075 30.7851 53.0694C30.8524 53.0961 30.9197 53.1229 30.987 53.1563H29.4795C26.3165 53.1563 23.6179 52.7354 21.3971 51.9269C19.1763 51.1185 17.4265 49.9292 16.0806 48.3524C14.8019 46.8492 13.7655 44.8381 13.0455 42.3259C12.3254 39.8138 11.9081 36.7938 11.8408 33.2995C11.8341 32.9521 11.8341 32.6113 11.8341 32.2706C11.8341 31.9232 11.8408 31.5757 11.8408 31.235C11.9149 25.9635 12.6013 21.3868 13.8665 17.505C15.1317 13.6231 16.9756 10.4362 19.3849 7.90396C21.5115 5.67241 24.0284 3.92191 26.9626 2.63243C29.8968 1.34294 33.2549 0.52114 37.0438 0.180395C38.3897 0.0601315 39.7895 0 41.2431 0H44.433C49.2583 0 53.4845 0.668128 57.1119 1.99102C60.7459 3.31392 63.7878 5.27821 66.2913 7.90396C67.5295 9.21349 68.6265 10.6901 69.5687 12.3537C70.5108 14.0173 71.3049 15.8547 71.9375 17.8791C73.2027 21.9346 73.8488 26.7251 73.8488 32.2639C73.8488 37.8294 73.2027 42.66 71.9375 46.7423C70.6723 50.8312 68.788 54.1785 66.298 56.8243C63.7945 59.4835 60.7527 61.4745 57.1186 62.8107" fill="#6461DA"/>
</svg>
