<svg width="64" height="64" viewBox="0 0 64 64" fill="none" xmlns="http://www.w3.org/2000/svg">
<path d="M0.993409 29.6884C0.98642 29.6953 0.972443 29.6953 0.965454 29.6953V29.7023C0.965454 29.7093 0.972443 29.7093 0.972443 29.7093C1.20307 29.7582 1.4337 29.8072 1.66433 29.8491C1.4337 29.7932 1.21705 29.7373 0.993409 29.6884ZM0.993409 29.6884C0.98642 29.6953 0.972443 29.6953 0.965454 29.6953V29.7023C0.965454 29.7093 0.972443 29.7093 0.972443 29.7093C1.20307 29.7582 1.4337 29.8072 1.66433 29.8491C1.4337 29.7932 1.21705 29.7373 0.993409 29.6884ZM0.993409 29.6884C0.98642 29.6953 0.972443 29.6953 0.965454 29.6953V29.7023C0.965454 29.7093 0.972443 29.7093 0.972443 29.7093C1.20307 29.7582 1.4337 29.8072 1.66433 29.8491C1.4337 29.7932 1.21705 29.7373 0.993409 29.6884ZM0.993409 29.6884C0.98642 29.6953 0.972443 29.6953 0.965454 29.6953V29.7023C0.965454 29.7093 0.972443 29.7093 0.972443 29.7093C1.20307 29.7582 1.4337 29.8072 1.66433 29.8491C1.4337 29.7932 1.21705 29.7373 0.993409 29.6884ZM0.993409 29.6884C0.98642 29.6953 0.972443 29.6953 0.965454 29.6953V29.7023C0.965454 29.7093 0.972443 29.7093 0.972443 29.7093C1.20307 29.7582 1.4337 29.8072 1.66433 29.8491C1.4337 29.7932 1.21705 29.7373 0.993409 29.6884Z" fill="#FFC005"/>
<path d="M30.6498 9.97291C30.6498 13.0689 30.3213 16.0741 29.6992 18.9324C29.0841 21.7838 28.1755 24.4955 27.0292 27.0254C24.52 28.1645 21.8291 29.0661 19.0053 29.6811C16.1186 30.3101 13.0922 30.6455 9.9679 30.6455C7.1162 30.6455 4.33438 30.366 1.67139 29.8348C1.6644 29.8348 1.65741 29.8279 1.65741 29.8279C1.43375 29.7789 1.21708 29.723 0.993412 29.6741C1.21708 29.6252 1.43375 29.5763 1.65741 29.5204C1.42676 29.5623 1.19611 29.6112 0.965454 29.6601C2.594 22.1752 6.20057 15.6477 11.0792 10.9443C15.7762 6.12212 22.2624 2.55788 29.6922 0.943481V0.95047C29.6992 0.964448 29.6992 0.978425 29.6992 0.992402C30.3213 3.87175 30.6498 6.8769 30.6498 9.97291Z" fill="#FF733B"/>
<path d="M1.6548 29.8419C1.42418 29.8 1.19355 29.751 0.962921 29.7021C0.962921 29.7021 0.955933 29.7021 0.955933 29.6951V29.6881C0.962921 29.6881 0.976899 29.6881 0.983887 29.6812C1.21452 29.7371 1.43117 29.793 1.6548 29.8419Z" fill="#FFC005"/>
<path d="M29.6898 0.957454C26.8101 0.335458 23.7977 0 20.6874 0C14.5087 0 8.69341 1.31388 3.62604 3.62016C1.31951 8.68698 0.00549316 14.5016 0.00549316 20.6796C0.00549316 23.7896 0.340988 26.8087 0.963052 29.6811C0.963052 29.6741 0.970041 29.6741 0.970041 29.6741C2.59859 22.1892 6.20516 15.6617 11.0838 10.9583C15.7807 6.13609 22.267 2.57185 29.6968 0.957454H29.6898Z" fill="#7188FF"/>
<path d="M34.2864 0.98523C34.2794 0.978242 34.2794 0.964264 34.2794 0.957275H34.2724C34.2654 0.957275 34.2654 0.964264 34.2654 0.964264C34.2165 1.19489 34.1675 1.42552 34.1256 1.65615C34.1885 1.43251 34.2374 1.20887 34.2864 0.98523ZM34.2864 0.98523C34.2794 0.978242 34.2794 0.964264 34.2794 0.957275H34.2724C34.2654 0.957275 34.2654 0.964264 34.2654 0.964264C34.2165 1.19489 34.1675 1.42552 34.1256 1.65615C34.1885 1.43251 34.2374 1.20887 34.2864 0.98523ZM34.2864 0.98523C34.2794 0.978242 34.2794 0.964264 34.2794 0.957275H34.2724C34.2654 0.957275 34.2654 0.964264 34.2654 0.964264C34.2165 1.19489 34.1675 1.42552 34.1256 1.65615C34.1885 1.43251 34.2374 1.20887 34.2864 0.98523ZM34.2864 0.98523C34.2794 0.978242 34.2794 0.964264 34.2794 0.957275H34.2724C34.2654 0.957275 34.2654 0.964264 34.2654 0.964264C34.2165 1.19489 34.1675 1.42552 34.1256 1.65615C34.1885 1.43251 34.2374 1.20887 34.2864 0.98523ZM34.2864 0.98523C34.2794 0.978242 34.2794 0.964264 34.2794 0.957275H34.2724C34.2654 0.957275 34.2654 0.964264 34.2654 0.964264C34.2165 1.19489 34.1675 1.42552 34.1256 1.65615C34.1885 1.43251 34.2374 1.20887 34.2864 0.98523Z" fill="#FFC005"/>
<path d="M54.0115 30.6523C50.9152 30.6523 47.9097 30.3239 45.044 29.7019C42.1853 29.0869 39.4734 28.1783 36.9432 27.0252C35.8039 24.5162 34.9023 21.8256 34.2872 18.9952C33.6581 16.1088 33.3226 13.0757 33.3226 9.95874C33.3226 7.10036 33.6022 4.32584 34.1334 1.66314C34.1334 1.65615 34.1404 1.64916 34.1404 1.64916C34.1893 1.42552 34.2452 1.20887 34.2942 0.98523C34.3431 1.20887 34.392 1.42552 34.4479 1.64916C34.406 1.41853 34.3571 1.1879 34.3082 0.957275C41.8009 2.58565 48.329 6.19881 53.033 11.07C57.8557 15.7734 61.4203 22.2519 63.0349 29.6879H63.0279C63.0139 29.6949 63 29.6949 62.986 29.6949C60.1203 30.3239 57.1148 30.6523 54.0115 30.6523Z" fill="#FF733B"/>
<path d="M34.1407 1.64931C34.1827 1.41868 34.2316 1.18806 34.2805 0.957428C34.2805 0.957428 34.2805 0.950439 34.2875 0.950439H34.2945C34.2945 0.957428 34.2945 0.971406 34.3015 0.978394C34.2386 1.20902 34.1897 1.43266 34.1407 1.64931Z" fill="#FFC005"/>
<path d="M63.0423 29.6951C63.6643 26.8227 63.9998 23.8036 63.9998 20.6936C63.9998 14.5086 62.6858 8.69396 60.3723 3.62714C55.2979 1.31388 49.4897 0 43.304 0C40.1937 0 37.1742 0.335458 34.2946 0.957454C34.3015 0.957454 34.3015 0.964443 34.3015 0.964443C41.7943 2.59281 48.3224 6.20598 53.0264 11.0771C57.8491 15.7805 61.4137 22.2591 63.0283 29.6951H63.0423C63.0423 29.6951 63.0353 29.6951 63.0423 29.6951Z" fill="#7188FF"/>
<path d="M62.996 34.2904C63.003 34.2834 63.017 34.2834 63.0239 34.2834V34.2764C63.0239 34.2694 63.017 34.2694 63.017 34.2694C62.7863 34.2205 62.5557 34.1716 62.3251 34.1296C62.5557 34.1925 62.7793 34.2415 62.996 34.2904ZM62.996 34.2904C63.003 34.2834 63.017 34.2834 63.0239 34.2834V34.2764C63.0239 34.2694 63.017 34.2694 63.017 34.2694C62.7863 34.2205 62.5557 34.1716 62.3251 34.1296C62.5557 34.1925 62.7793 34.2415 62.996 34.2904ZM62.996 34.2904C63.003 34.2834 63.017 34.2834 63.0239 34.2834V34.2764C63.0239 34.2694 63.017 34.2694 63.017 34.2694C62.7863 34.2205 62.5557 34.1716 62.3251 34.1296C62.5557 34.1925 62.7793 34.2415 62.996 34.2904ZM62.996 34.2904C63.003 34.2834 63.017 34.2834 63.0239 34.2834V34.2764C63.0239 34.2694 63.017 34.2694 63.017 34.2694C62.7863 34.2205 62.5557 34.1716 62.3251 34.1296C62.5557 34.1925 62.7793 34.2415 62.996 34.2904ZM62.996 34.2904C63.003 34.2834 63.017 34.2834 63.0239 34.2834V34.2764C63.0239 34.2694 63.017 34.2694 63.017 34.2694C62.7863 34.2205 62.5557 34.1716 62.3251 34.1296C62.5557 34.1925 62.7793 34.2415 62.996 34.2904Z" fill="#FFC005"/>
<path d="M33.3405 54.0055C33.3405 50.9095 33.669 47.9044 34.291 45.046C34.9061 42.1946 35.8147 39.483 36.961 36.953C39.4702 35.8139 42.1612 34.9123 44.9849 34.2973C47.8716 33.6683 50.898 33.3329 54.0223 33.3329C56.874 33.3329 59.6558 33.6124 62.3188 34.1436C62.3258 34.1436 62.3328 34.1506 62.3328 34.1506C62.5565 34.1995 62.7731 34.2554 62.9968 34.3043C62.7731 34.3532 62.5565 34.4022 62.3328 34.4581C62.5635 34.4161 62.7941 34.3672 63.0248 34.3183C61.3962 41.8032 57.7896 48.3307 52.911 53.0341C48.2141 57.8563 41.7278 61.4205 34.298 63.0349V63.0279C34.291 63.014 34.291 63 34.291 62.986C33.669 60.1136 33.3405 57.1015 33.3405 54.0055Z" fill="#FF733B"/>
<path d="M62.3346 34.1434C62.5652 34.1854 62.7958 34.2343 63.0265 34.2832C63.0265 34.2832 63.0335 34.2832 63.0335 34.2902V34.2972C63.0265 34.2972 63.0125 34.2972 63.0055 34.3042C62.7819 34.2413 62.5582 34.1924 62.3346 34.1434Z" fill="#FFC005"/>
<path d="M34.3048 63.0281C37.1775 63.6501 40.197 63.9855 43.3073 63.9855C49.486 63.9855 55.3012 62.6716 60.3686 60.3654C62.6751 55.2985 63.9892 49.4839 63.9892 43.3059C63.9892 40.1959 63.6537 37.1768 63.0316 34.3044C63.0316 34.3114 63.0246 34.3114 63.0246 34.3114C61.3961 41.7963 57.7895 48.3238 52.9108 53.0272C48.2139 57.8494 41.7277 61.4137 34.2979 63.0281H34.3048C34.3048 63.0281 34.3048 63.0211 34.3048 63.0281Z" fill="#7188FF"/>
<path d="M29.7058 62.9931C29.7128 63 29.7128 63.014 29.7128 63.021H29.7198C29.7268 63.021 29.7268 63.014 29.7268 63.014C29.7757 62.7834 29.8246 62.5528 29.8666 62.3221C29.8037 62.5528 29.7547 62.7764 29.7058 62.9931ZM29.7058 62.9931C29.7128 63 29.7128 63.014 29.7128 63.021H29.7198C29.7268 63.021 29.7268 63.014 29.7268 63.014C29.7757 62.7834 29.8246 62.5528 29.8666 62.3221C29.8037 62.5528 29.7547 62.7764 29.7058 62.9931ZM29.7058 62.9931C29.7128 63 29.7128 63.014 29.7128 63.021H29.7198C29.7268 63.021 29.7268 63.014 29.7268 63.014C29.7757 62.7834 29.8246 62.5528 29.8666 62.3221C29.8037 62.5528 29.7547 62.7764 29.7058 62.9931ZM29.7058 62.9931C29.7128 63 29.7128 63.014 29.7128 63.021H29.7198C29.7268 63.021 29.7268 63.014 29.7268 63.014C29.7757 62.7834 29.8246 62.5528 29.8666 62.3221C29.8037 62.5528 29.7547 62.7764 29.7058 62.9931ZM29.7058 62.9931C29.7128 63 29.7128 63.014 29.7128 63.021H29.7198C29.7268 63.021 29.7268 63.014 29.7268 63.014C29.7757 62.7834 29.8246 62.5528 29.8666 62.3221C29.8037 62.5528 29.7547 62.7764 29.7058 62.9931Z" fill="#FFC005"/>
<path d="M9.9813 33.3262C13.0776 33.3262 16.0831 33.6546 18.9488 34.2766C21.8075 34.8916 24.5194 35.8002 27.0496 36.9533C28.1889 39.4623 29.0905 42.1529 29.7056 44.9834C30.3347 47.8697 30.6702 50.9028 30.6702 54.0198C30.6702 56.8781 30.3906 59.6527 29.8594 62.3154C29.8594 62.3224 29.8524 62.3293 29.8524 62.3293C29.8035 62.553 29.7475 62.7696 29.6986 62.9933C29.6497 62.7696 29.6008 62.553 29.5448 62.3293C29.5868 62.56 29.6357 62.7906 29.6846 63.0212C22.1919 61.3929 15.6637 57.7797 10.9598 52.9086C6.13709 48.2051 2.57245 41.7266 0.957886 34.2906H0.964875C0.978854 34.2836 0.992833 34.2836 1.00681 34.2836C3.8725 33.6546 6.88496 33.3262 9.9813 33.3262Z" fill="#FF733B"/>
<path d="M29.859 62.3293C29.8171 62.56 29.7681 62.7906 29.7192 63.0212C29.7192 63.0212 29.7192 63.0282 29.7122 63.0282H29.7052C29.7052 63.0212 29.7052 63.0073 29.6982 63.0003C29.7542 62.7766 29.8031 62.553 29.859 62.3293Z" fill="#FFC005"/>
<path d="M0.957558 34.2906C0.335495 37.163 0 40.1821 0 43.2921C0 49.4771 1.31402 55.2917 3.62754 60.3586C8.69491 62.6648 14.5102 63.9857 20.6958 63.9857C23.8062 63.9857 26.8256 63.6502 29.7053 63.0283C29.6983 63.0283 29.6983 63.0213 29.6983 63.0213C22.2056 61.3929 15.6774 57.7797 10.9735 52.9086C6.15074 48.2052 2.58611 41.7266 0.971537 34.2906H0.957558Z" fill="#7188FF"/>
</svg>
