<svg width="799" height="651" viewBox="0 0 799 651" fill="none" xmlns="http://www.w3.org/2000/svg">
<rect x="118" y="499" width="240" height="152" rx="48" fill="#1C60BF" fill-opacity="0.1"/>
<path d="M233.256 585.435L232.753 584.156C232.053 582.369 230.636 580.952 228.849 580.252L227.57 579.748L227.039 579.543L224.045 578.371V578.367L223.403 578.117L220.346 576.918L217.833 575.934C217.423 575.755 217.218 575.452 217.218 575.029C217.218 575.016 217.218 575.011 217.222 575.002C217.218 574.993 217.218 574.984 217.218 574.975C217.218 574.548 217.423 574.245 217.833 574.071L220.346 573.082L223.403 571.883L224.045 571.633L222.81 568.803L222.761 568.688L219.811 569.846L216.317 571.219C215.466 571.557 214.865 572.034 214.521 572.645C214.174 573.255 214 574.044 214 575.002C214 575.96 214.174 576.745 214.521 577.36C214.865 577.97 215.466 578.447 216.317 578.781L219.816 580.154L222.766 581.313L222.882 581.357L225.756 582.485L226.745 580.216L225.756 582.485L226.371 582.725C228.158 583.429 229.571 584.842 230.275 586.629L230.515 587.244L233.461 585.961L233.256 585.435Z" fill="url(#paint0_linear_1_1030)"/>
<path d="M256.006 587.658L254.509 584.214L253.243 581.313L253.221 581.321L253.243 581.313L253.194 581.197L251.96 578.367L250.658 578.879L251.964 578.367L251.697 577.761C250.93 576.001 250.93 574 251.697 572.239L251.964 571.633L248.969 570.461L248.742 570.978L248.194 572.235C247.423 574 247.423 576.005 248.194 577.765L248.742 579.022L248.969 579.543L250.257 582.489L251.603 581.959L250.257 582.489L250.529 583.117L251.848 586.13L252.927 588.603C253.087 589.013 253.02 589.374 252.717 589.677L252.699 589.695C252.695 589.7 252.691 589.708 252.682 589.713C252.379 590.016 252.022 590.083 251.608 589.922L249.134 588.839L246.122 587.525L245.493 587.248L244.366 590.123L244.317 590.239L247.223 591.504L250.667 593.006C251.505 593.372 252.267 593.461 252.945 593.269C253.622 593.082 254.299 592.65 254.977 591.972C255.654 591.295 256.091 590.618 256.278 589.94C256.461 589.263 256.372 588.501 256.006 587.658Z" fill="url(#paint1_linear_1_1030)"/>
<path d="M243.154 556.816L241.781 553.317C241.447 552.466 240.97 551.865 240.36 551.521C239.745 551.174 238.96 551 238.002 551C237.044 551 236.26 551.174 235.645 551.521C235.034 551.865 234.557 552.466 234.223 553.317L232.846 556.816L231.692 559.761L231.808 559.81L233.684 560.63L231.808 559.81L231.692 559.761L231.647 559.877L230.52 562.752L230.279 563.367C229.575 565.154 228.162 566.566 226.375 567.27L225.756 567.515L227.044 570.461L227.574 570.252L228.849 569.753C230.64 569.053 232.057 567.636 232.757 565.844L233.261 564.565L233.466 564.039L232.65 563.683L233.466 564.039L234.638 561.045L234.892 560.407L236.09 557.346L237.075 554.833C237.254 554.427 237.552 554.222 237.98 554.222H238.033C238.461 554.222 238.76 554.427 238.938 554.833L239.923 557.346L241.126 560.407L241.376 561.045L244.206 559.815L244.317 559.761L243.154 556.816Z" fill="url(#paint2_linear_1_1030)"/>
<path d="M256.273 560.064C256.086 559.387 255.65 558.71 254.972 558.032C254.295 557.35 253.617 556.918 252.94 556.731C252.263 556.544 251.501 556.633 250.663 556.994L247.218 558.496L244.312 559.761V559.766L244.201 559.815L241.371 561.045L240.761 561.312C239.005 562.079 237.004 562.079 235.244 561.312L234.633 561.045L233.461 564.039L233.983 564.267L235.239 564.815C237 565.586 239.005 565.586 240.765 564.815L242.026 564.267L242.543 564.039L242.338 563.514L242.543 564.039L245.489 562.751L244.362 559.877L244.335 559.815L244.362 559.882L245.489 562.751L246.117 562.48L249.13 561.161L251.603 560.082C252.018 559.922 252.374 559.989 252.677 560.292C252.682 560.296 252.691 560.3 252.695 560.309C252.699 560.314 252.708 560.318 252.713 560.327C253.016 560.63 253.083 560.987 252.922 561.401L251.844 563.875L250.525 566.887L250.253 567.515L253.123 568.643L253.243 568.687L254.504 565.786L256.011 562.342C256.372 561.499 256.461 560.742 256.273 560.064Z" fill="url(#paint3_linear_1_1030)"/>
<path d="M261.483 572.645C261.14 572.034 260.538 571.557 259.687 571.219L256.189 569.846L253.243 568.688L253.208 568.759L253.239 568.688L253.123 568.643L250.253 567.515L249.633 567.27C247.846 566.566 246.434 565.154 245.73 563.367L245.489 562.752L242.543 564.039L242.748 564.565L243.252 565.844C243.952 567.636 245.369 569.053 247.16 569.753L248.435 570.252L248.965 570.461L251.96 571.633L252.699 569.94L251.964 571.633L252.601 571.883L255.659 573.082L258.176 574.071C258.582 574.245 258.787 574.548 258.787 574.976C258.787 574.984 258.787 574.993 258.782 575.002C258.787 575.011 258.787 575.016 258.787 575.029C258.787 575.452 258.582 575.755 258.176 575.934L255.659 576.919L252.601 578.117L251.964 578.367L253.199 581.197L253.248 581.313L256.193 580.154L259.692 578.781C260.543 578.447 261.144 577.97 261.488 577.36C261.835 576.745 262.009 575.96 262.009 575.002C262.004 574.044 261.831 573.255 261.483 572.645Z" fill="url(#paint4_linear_1_1030)"/>
<path d="M242.022 585.738L240.765 585.185C239 584.419 237 584.419 235.239 585.185L233.983 585.738L233.461 585.965L230.515 587.253L229.887 587.529L226.875 588.844L224.401 589.922C223.987 590.087 223.63 590.02 223.327 589.717C223.323 589.713 223.314 589.704 223.309 589.7C223.305 589.695 223.296 589.686 223.292 589.682C222.989 589.379 222.922 589.018 223.082 588.608L224.165 586.134L225.48 583.117L225.756 582.494L222.882 581.362L222.766 581.317L221.496 584.218L219.998 587.663C219.633 588.505 219.544 589.263 219.731 589.945C219.923 590.622 220.355 591.299 221.032 591.977C221.71 592.654 222.387 593.086 223.064 593.274C223.742 593.465 224.504 593.376 225.342 593.011L228.786 591.509L231.692 590.243L231.808 590.194L234.638 588.96L233.929 587.155L234.638 588.96L235.244 588.697C237.004 587.93 239 587.93 240.761 588.697L241.371 588.96L242.543 585.97L242.022 585.738Z" fill="url(#paint5_linear_1_1030)"/>
<path d="M228.786 558.496L225.342 556.994C224.504 556.633 223.742 556.544 223.064 556.731C222.387 556.918 221.71 557.35 221.032 558.032C220.355 558.71 219.923 559.387 219.731 560.064C219.544 560.742 219.633 561.499 219.994 562.342L221.5 565.786L222.766 568.687L222.815 568.803L224.049 571.633L225.498 571.067L224.054 571.633L224.317 572.244C225.083 574.004 225.083 576 224.317 577.761L224.054 578.367L227.044 579.543L227.271 579.022L227.815 577.765C228.586 576.005 228.586 574.004 227.819 572.239L227.267 570.982L227.039 570.461L225.752 567.515L225.48 566.887L224.165 563.875L223.082 561.401C222.922 560.987 222.989 560.63 223.292 560.327C223.296 560.318 223.305 560.314 223.309 560.309C223.314 560.3 223.323 560.296 223.327 560.292C223.63 559.989 223.987 559.922 224.401 560.082L226.875 561.161L229.887 562.48L230.515 562.751L231.647 559.882L231.692 559.761L228.786 558.496Z" fill="url(#paint6_linear_1_1030)"/>
<path d="M248.965 579.543L248.435 579.748L247.156 580.252C245.369 580.952 243.952 582.369 243.252 584.156L242.748 585.435L242.543 585.965L241.371 588.96L241.122 589.597L239.918 592.659L238.934 595.172C238.755 595.577 238.457 595.787 238.029 595.787C238.02 595.787 238.011 595.787 238.002 595.782C237.993 595.787 237.984 595.787 237.975 595.787C237.548 595.787 237.249 595.577 237.071 595.172L236.086 592.659L234.887 589.597L234.638 588.96L231.803 590.194L231.692 590.243L232.846 593.193L234.223 596.687C234.557 597.543 235.034 598.14 235.645 598.488C236.26 598.835 237.044 599.004 238.002 599.004C238.96 599.004 239.745 598.835 240.36 598.488C240.97 598.14 241.447 597.543 241.781 596.687L243.154 593.193L244.313 590.243L244.259 590.216L244.313 590.239L244.357 590.123L245.485 587.248L243.898 586.558L245.485 587.248L245.725 586.633C246.429 584.846 247.842 583.434 249.629 582.73L250.248 582.489L248.965 579.543Z" fill="url(#paint7_linear_1_1030)"/>
<rect x="414" y="351" width="385" height="243" rx="54" fill="#4285F4" fill-opacity="0.1"/>
<path d="M575.884 520.252C570.262 518.205 565.555 515.165 561.693 511.101C557.84 507.058 554.925 501.929 552.967 495.663C551 489.386 550 481.962 550 473.4C550 464.786 551 457.31 552.957 450.981C554.914 444.653 557.83 439.472 561.682 435.378C565.555 431.262 570.262 428.181 575.884 426.112C580.955 424.241 586.785 423.207 593.386 423.021C592.304 423.403 591.242 423.807 590.221 424.261C585.328 426.402 581.069 429.37 577.508 433.113C573.416 437.404 570.345 442.761 568.273 449.141C566.201 455.51 565.118 462.894 564.993 471.29C564.983 471.817 564.983 472.366 564.983 472.934C564.983 473.493 564.993 474.041 564.993 474.578V474.589C565.076 478.942 565.503 482.882 566.253 486.398C566.534 487.773 566.846 489.096 567.221 490.337C568.398 494.194 570.064 497.421 572.281 499.975C574.728 502.798 577.946 504.907 581.84 506.282C583.641 506.913 585.598 507.399 587.681 507.74C587.837 507.761 587.993 507.792 588.139 507.813C588.233 507.823 588.326 507.833 588.41 507.854C590.586 508.164 592.887 508.319 595.354 508.33H600.29C600.893 508.33 601.497 508.319 602.08 508.299C603.882 508.257 605.589 508.102 607.213 507.875H607.224C610.691 507.389 613.783 506.5 616.49 505.176C619.208 503.852 621.53 502.084 623.414 499.913C625.903 497.069 627.704 493.398 628.891 488.952C630.078 484.505 630.661 479.273 630.661 473.255C630.661 467.247 630.088 462.015 628.912 457.558C627.735 453.111 625.955 449.42 623.518 446.535C621.644 444.343 619.333 442.564 616.605 441.23C616.501 441.189 616.397 441.148 616.293 441.096H618.49C620.905 441.096 623.144 441.261 625.205 441.551C625.257 441.561 625.32 441.561 625.382 441.571C625.518 441.592 625.663 441.623 625.799 441.644C626.142 441.696 626.465 441.758 626.798 441.82C626.996 441.861 627.183 441.892 627.381 441.933C627.433 441.944 627.485 441.964 627.548 441.975L627.662 441.995C627.767 442.016 627.86 442.037 627.944 442.068C628.131 442.109 628.318 442.151 628.495 442.202C628.985 442.326 629.464 442.461 629.932 442.606C630.026 442.637 630.109 442.657 630.203 442.688C630.515 442.792 630.828 442.895 631.13 442.998C634.566 444.25 637.273 446.09 639.355 448.531C641.333 450.857 642.926 453.97 644.04 457.858C644.29 458.726 644.519 459.657 644.717 460.608C645.248 463.307 645.592 466.316 645.717 469.656C645.727 469.998 645.738 470.318 645.748 470.618V470.628C645.758 470.825 645.758 471.063 645.758 471.331C645.758 471.611 645.748 471.911 645.748 472.407C645.748 472.965 645.758 473.761 645.758 474.454V474.589C645.758 474.858 645.758 475.106 645.748 475.313V475.323C645.738 475.633 645.727 475.954 645.717 476.305C645.477 484.071 644.363 490.844 642.416 496.614C640.469 502.384 637.689 507.151 634.087 510.987C630.796 514.482 626.902 517.223 622.363 519.239" fill="#7188FF" fill-opacity="0.9"/>
<path d="M623.654 522C628.547 519.828 632.795 516.83 636.367 513.035C640.313 508.857 643.312 503.666 645.363 497.545C647.435 491.423 648.57 484.361 648.83 476.367V476.357C648.84 476.057 648.851 475.726 648.861 475.364C648.861 475.354 648.861 475.354 648.861 475.354C648.871 475.064 648.871 474.806 648.871 474.578V474.413C648.871 473.699 648.861 472.893 648.861 472.366C648.861 471.9 648.871 471.642 648.871 471.311V471.269C648.871 471.052 648.871 470.794 648.861 470.504V470.494C648.861 470.494 648.861 470.494 648.861 470.484C648.851 470.132 648.84 469.811 648.83 469.512V469.491C648.632 464.331 647.955 459.833 646.789 455.976C645.623 452.119 643.947 448.893 641.729 446.338C639.282 443.516 636.065 441.416 632.171 440.031C628.287 438.655 623.727 437.994 618.5 437.983H613.565C611.16 437.983 608.89 438.138 606.776 438.438H606.766C603.299 438.924 600.206 439.814 597.499 441.137C594.792 442.461 592.46 444.229 590.575 446.401C588.097 449.244 586.285 452.915 585.099 457.361C583.912 461.808 583.329 467.04 583.329 473.058C583.329 479.066 583.901 484.298 585.078 488.755C586.254 493.202 588.035 496.893 590.482 499.778C592.356 501.97 594.667 503.749 597.395 505.083C597.499 505.124 597.603 505.166 597.707 505.217H595.375C590.482 505.217 586.306 504.566 582.87 503.315C579.434 502.063 576.727 500.223 574.645 497.782C572.667 495.456 571.063 492.343 569.949 488.455C568.835 484.567 568.19 479.893 568.085 474.485C568.075 473.948 568.075 473.42 568.075 472.893C568.075 472.355 568.085 471.817 568.085 471.29C568.2 463.131 569.262 456.048 571.219 450.04C573.177 444.033 576.03 439.1 579.757 435.181C583.047 431.727 586.941 429.018 591.481 427.022C596.021 425.027 601.216 423.755 607.078 423.227C609.16 423.041 611.326 422.948 613.575 422.948H618.51C625.976 422.948 632.514 423.982 638.126 426.03C643.749 428.077 648.455 431.117 652.328 435.181C654.244 437.208 655.941 439.493 657.399 442.068C658.857 444.643 660.085 447.486 661.064 450.619C663.021 456.896 664.021 464.31 664.021 472.883C664.021 481.496 663.021 488.972 661.064 495.29C659.106 501.619 656.191 506.799 652.339 510.894C648.465 515.01 643.759 518.091 638.137 520.159" fill="#6461DA"/>
<rect y="206" width="358" height="239" rx="54" fill="#FFBA00" fill-opacity="0.1"/>
<path d="M169.094 312.777L174.899 318.539C176.889 320.521 180.107 320.521 182.097 318.539L186.864 313.806L187.868 312.742L215.76 284.847C216.815 283.791 216.071 282 214.583 282H204.781C201.632 282 198.604 283.255 196.381 285.478L178.498 303.371L172.589 297.462C170.409 295.281 167.45 294.053 164.37 294.053H150.442L169.129 312.742L169.094 312.777Z" fill="#FF0C5D"/>
<path d="M152.312 369C155.401 369 158.36 367.771 160.54 365.591L178.5 347.628L184.331 353.46C186.563 355.693 189.591 356.947 192.749 356.947H206.557L187.87 338.258L187.904 338.223L182.108 332.461C180.109 330.479 176.891 330.479 174.901 332.461L170.134 337.194L169.131 338.258L141.221 366.162C140.174 367.209 140.918 369 142.398 369" fill="#FFC005"/>
<path d="M156.369 325.504L150.503 331.371C148.297 333.577 147.051 336.579 147.051 339.703V353.564L165.739 334.875L165.773 334.91L171.552 329.086C173.534 327.088 173.534 323.86 171.535 321.87L137.82 288.204C136.774 287.165 135 287.901 135 289.372V299.227C135 302.394 136.229 305.361 138.469 307.602L156.369 325.504Z" fill="#221ECA"/>
<path d="M218.573 343.441L200.725 325.504L206.652 319.552C208.797 317.397 210 314.473 210 311.436V297.427L191.391 316.125L191.356 316.091L185.663 321.853C183.699 323.834 183.691 327.027 185.637 329.026L191.365 334.91L191.399 334.875L219.24 362.848C220.26 363.869 221.999 363.151 221.999 361.706V351.73C221.991 348.598 220.779 345.656 218.573 343.441Z" fill="#221ECA"/>
<rect x="414" y="88" width="315" height="204" rx="48" fill="#33D664" fill-opacity="0.1"/>
<path d="M581.816 199.808C579.754 204.384 576.307 208.197 572.004 210.702C568.463 212.772 564.355 213.947 559.958 213.947C556.465 213.947 553.142 213.2 550.146 211.846C541.999 208.197 536.28 200.127 536.008 190.696C536 190.463 536 190.237 536 190.004C536 189.771 536 189.537 536.008 189.311C536.272 179.881 541.999 171.811 550.138 168.154C548.792 171.15 548.045 174.465 548.045 177.959C548.045 182.347 549.228 186.463 551.29 190.004C553.796 194.307 557.608 197.754 562.184 199.808C565.18 201.155 568.494 201.902 571.996 201.902C575.497 201.902 578.82 201.155 581.816 199.808Z" fill="url(#paint8_linear_1_1030)"/>
<path d="M607.999 190.004C607.999 190.237 607.999 190.471 607.991 190.697C607.727 200.127 602 208.197 593.868 211.854C595.215 208.858 595.962 205.535 595.962 202.042C595.962 197.653 594.779 193.537 592.717 189.996C590.211 185.693 586.398 182.238 581.823 180.184C578.827 178.838 575.513 178.091 572.011 178.091C568.509 178.091 565.195 178.838 562.199 180.184C564.253 175.609 567.708 171.804 572.003 169.29C575.544 167.221 579.652 166.046 584.049 166.046C587.55 166.046 590.873 166.793 593.868 168.146C602 171.804 607.727 179.873 607.991 189.304C607.991 189.537 607.999 189.771 607.999 190.004Z" fill="url(#paint9_linear_1_1030)"/>
<path d="M593.861 168.146C590.866 166.8 587.543 166.045 584.041 166.045C579.653 166.045 575.537 167.228 571.996 169.29C567.693 171.796 564.246 175.609 562.192 180.184C560.846 183.18 560.091 186.502 560.091 189.996C560.091 193.49 560.838 196.813 562.184 199.801C557.609 197.746 553.804 194.291 551.29 189.996C549.22 186.456 548.046 182.347 548.046 177.951C548.046 174.457 548.793 171.134 550.139 168.146C553.796 160.007 561.873 154.28 571.304 154.008C571.537 154 571.77 154 572.004 154C572.237 154 572.471 154 572.696 154.008C582.135 154.28 590.204 160.007 593.861 168.146Z" fill="url(#paint10_linear_1_1030)"/>
<path d="M571.303 225.984C561.872 225.72 553.795 219.993 550.138 211.854C553.134 213.2 556.448 213.955 559.95 213.955C564.338 213.955 568.455 212.772 571.995 210.71C576.298 208.204 579.753 204.391 581.807 199.816C583.153 196.82 583.9 193.505 583.9 190.012C583.9 186.518 583.153 183.187 581.807 180.199C586.383 182.254 590.195 185.709 592.701 190.012C594.771 193.552 595.946 197.661 595.946 202.057C595.946 205.551 595.199 208.873 593.853 211.869C590.195 220.008 582.119 225.735 572.688 226" fill="url(#paint11_linear_1_1030)"/>
<rect x="118" width="240" height="152" rx="40" fill="#F35325" fill-opacity="0.1"/>
<path d="M214.744 74.2095C214.738 74.2147 214.728 74.2147 214.723 74.2147V74.2199C214.723 74.2252 214.728 74.2252 214.728 74.2252C214.9 74.2618 215.073 74.2984 215.245 74.3297C215.073 74.2879 214.911 74.2461 214.744 74.2095ZM214.744 74.2095C214.738 74.2147 214.728 74.2147 214.723 74.2147V74.2199C214.723 74.2252 214.728 74.2252 214.728 74.2252C214.9 74.2618 215.073 74.2984 215.245 74.3297C215.073 74.2879 214.911 74.2461 214.744 74.2095ZM214.744 74.2095C214.738 74.2147 214.728 74.2147 214.723 74.2147V74.2199C214.723 74.2252 214.728 74.2252 214.728 74.2252C214.9 74.2618 215.073 74.2984 215.245 74.3297C215.073 74.2879 214.911 74.2461 214.744 74.2095ZM214.744 74.2095C214.738 74.2147 214.728 74.2147 214.723 74.2147V74.2199C214.723 74.2252 214.728 74.2252 214.728 74.2252C214.9 74.2618 215.073 74.2984 215.245 74.3297C215.073 74.2879 214.911 74.2461 214.744 74.2095ZM214.744 74.2095C214.738 74.2147 214.728 74.2147 214.723 74.2147V74.2199C214.723 74.2252 214.728 74.2252 214.728 74.2252C214.9 74.2618 215.073 74.2984 215.245 74.3297C215.073 74.2879 214.911 74.2461 214.744 74.2095Z" fill="#FFC005"/>
<path d="M236.929 59.4606C236.929 61.7767 236.683 64.0248 236.218 66.1632C235.758 68.2963 235.078 70.3248 234.221 72.2174C232.344 73.0696 230.331 73.744 228.218 74.2041C226.059 74.6747 223.795 74.9256 221.457 74.9256C219.324 74.9256 217.243 74.7165 215.251 74.3191C215.246 74.3191 215.24 74.3139 215.24 74.3139C215.073 74.2773 214.911 74.2355 214.744 74.1989C214.911 74.1623 215.073 74.1257 215.24 74.0839C215.068 74.1152 214.895 74.1518 214.723 74.1884C215.941 68.589 218.639 63.7059 222.289 60.1873C225.802 56.5799 230.655 53.9135 236.213 52.7058V52.711C236.218 52.7215 236.218 52.732 236.218 52.7424C236.683 54.8964 236.929 57.1445 236.929 59.4606Z" fill="#FF733B"/>
<path d="M215.24 74.3244C215.067 74.293 214.895 74.2564 214.722 74.2198C214.722 74.2198 214.717 74.2198 214.717 74.2146V74.2093C214.722 74.2093 214.732 74.2093 214.738 74.2041C214.91 74.2459 215.072 74.2878 215.24 74.3244Z" fill="#FFC005"/>
<path d="M236.212 52.7163C234.058 52.251 231.805 52 229.478 52C224.856 52 220.505 52.9829 216.714 54.7082C214.989 58.4986 214.006 62.8485 214.006 67.4702C214.006 69.7968 214.257 72.0553 214.722 74.2041C214.722 74.1989 214.727 74.1989 214.727 74.1989C215.946 68.5995 218.644 63.7164 222.293 60.1978C225.807 56.5903 230.659 53.924 236.218 52.7163H236.212Z" fill="#7188FF"/>
<path d="M239.652 52.7371C239.646 52.7319 239.646 52.7214 239.646 52.7162H239.641C239.636 52.7162 239.636 52.7214 239.636 52.7214C239.599 52.8939 239.563 53.0665 239.531 53.239C239.578 53.0717 239.615 52.9044 239.652 52.7371ZM239.652 52.7371C239.646 52.7319 239.646 52.7214 239.646 52.7162H239.641C239.636 52.7162 239.636 52.7214 239.636 52.7214C239.599 52.8939 239.563 53.0665 239.531 53.239C239.578 53.0717 239.615 52.9044 239.652 52.7371ZM239.652 52.7371C239.646 52.7319 239.646 52.7214 239.646 52.7162H239.641C239.636 52.7162 239.636 52.7214 239.636 52.7214C239.599 52.8939 239.563 53.0665 239.531 53.239C239.578 53.0717 239.615 52.9044 239.652 52.7371ZM239.652 52.7371C239.646 52.7319 239.646 52.7214 239.646 52.7162H239.641C239.636 52.7162 239.636 52.7214 239.636 52.7214C239.599 52.8939 239.563 53.0665 239.531 53.239C239.578 53.0717 239.615 52.9044 239.652 52.7371ZM239.652 52.7371C239.646 52.7319 239.646 52.7214 239.646 52.7162H239.641C239.636 52.7162 239.636 52.7214 239.636 52.7214C239.599 52.8939 239.563 53.0665 239.531 53.239C239.578 53.0717 239.615 52.9044 239.652 52.7371Z" fill="#FFC005"/>
<path d="M254.407 74.9308C252.09 74.9308 249.842 74.685 247.698 74.2197C245.56 73.7596 243.531 73.08 241.638 72.2173C240.786 70.3404 240.111 68.3276 239.651 66.2101C239.181 64.0509 238.93 61.7819 238.93 59.4501C238.93 57.3118 239.139 55.2362 239.536 53.2442C239.536 53.239 239.541 53.2338 239.541 53.2338C239.578 53.0665 239.62 52.9044 239.656 52.7371C239.693 52.9044 239.73 53.0665 239.772 53.2338C239.74 53.0612 239.704 52.8887 239.667 52.7162C245.272 53.9344 250.156 56.6373 253.675 60.2814C257.283 63.7999 259.949 68.6465 261.157 74.2093H261.152C261.141 74.2145 261.131 74.2145 261.121 74.2145C258.977 74.685 256.728 74.9308 254.407 74.9308Z" fill="#FF733B"/>
<path d="M239.541 53.2339C239.572 53.0613 239.609 52.8888 239.646 52.7163C239.646 52.7163 239.646 52.7111 239.651 52.7111H239.656C239.656 52.7163 239.656 52.7267 239.661 52.732C239.614 52.9045 239.578 53.0718 239.541 53.2339Z" fill="#FFC005"/>
<path d="M261.162 74.2146C261.627 72.0658 261.878 69.8072 261.878 67.4807C261.878 62.8537 260.895 58.5039 259.165 54.7134C255.369 52.9829 251.024 52 246.396 52C244.069 52 241.81 52.251 239.656 52.7163C239.661 52.7163 239.661 52.7215 239.661 52.7215C245.267 53.9397 250.15 56.6426 253.669 60.2867C257.277 63.8053 259.944 68.6518 261.152 74.2146H261.162C261.162 74.2146 261.157 74.2146 261.162 74.2146Z" fill="#7188FF"/>
<path d="M261.129 77.6524C261.134 77.6471 261.145 77.6471 261.15 77.6471V77.6419C261.15 77.6367 261.145 77.6367 261.145 77.6367C260.972 77.6001 260.8 77.5635 260.627 77.5321C260.8 77.5792 260.967 77.6158 261.129 77.6524ZM261.129 77.6524C261.134 77.6471 261.145 77.6471 261.15 77.6471V77.6419C261.15 77.6367 261.145 77.6367 261.145 77.6367C260.972 77.6001 260.8 77.5635 260.627 77.5321C260.8 77.5792 260.967 77.6158 261.129 77.6524ZM261.129 77.6524C261.134 77.6471 261.145 77.6471 261.15 77.6471V77.6419C261.15 77.6367 261.145 77.6367 261.145 77.6367C260.972 77.6001 260.8 77.5635 260.627 77.5321C260.8 77.5792 260.967 77.6158 261.129 77.6524ZM261.129 77.6524C261.134 77.6471 261.145 77.6471 261.15 77.6471V77.6419C261.15 77.6367 261.145 77.6367 261.145 77.6367C260.972 77.6001 260.8 77.5635 260.627 77.5321C260.8 77.5792 260.967 77.6158 261.129 77.6524ZM261.129 77.6524C261.134 77.6471 261.145 77.6471 261.15 77.6471V77.6419C261.15 77.6367 261.145 77.6367 261.145 77.6367C260.972 77.6001 260.8 77.5635 260.627 77.5321C260.8 77.5792 260.967 77.6158 261.129 77.6524Z" fill="#FFC005"/>
<path d="M238.943 92.401C238.943 90.0849 239.189 87.8368 239.654 85.6985C240.115 83.5654 240.794 81.5368 241.652 79.6442C243.529 78.792 245.542 78.1176 247.654 77.6575C249.814 77.187 252.078 76.936 254.415 76.936C256.549 76.936 258.63 77.1452 260.622 77.5425C260.627 77.5425 260.632 77.5477 260.632 77.5477C260.8 77.5843 260.962 77.6262 261.129 77.6628C260.962 77.6994 260.8 77.7359 260.632 77.7778C260.805 77.7464 260.977 77.7098 261.15 77.6732C259.932 83.2726 257.234 88.1557 253.584 91.6743C250.07 95.2817 245.218 97.9481 239.66 99.1558V99.1506C239.654 99.1402 239.654 99.1297 239.654 99.1192C239.189 96.9705 238.943 94.7171 238.943 92.401Z" fill="#FF733B"/>
<path d="M260.633 77.5425C260.805 77.5738 260.978 77.6104 261.15 77.647C261.15 77.647 261.156 77.647 261.156 77.6523V77.6575C261.15 77.6575 261.14 77.6575 261.135 77.6627C260.967 77.6157 260.8 77.5791 260.633 77.5425Z" fill="#FFC005"/>
<path d="M239.665 99.1507C241.814 99.616 244.073 99.867 246.4 99.867C251.022 99.867 255.373 98.8841 259.163 97.1588C260.889 93.3683 261.872 89.0185 261.872 84.3967C261.872 82.0702 261.621 79.8116 261.156 77.6628C261.156 77.6681 261.15 77.6681 261.15 77.6681C259.932 83.2675 257.234 88.1506 253.584 91.6692C250.071 95.2766 245.218 97.943 239.66 99.1507H239.665C239.665 99.1507 239.665 99.1455 239.665 99.1507Z" fill="#7188FF"/>
<path d="M236.223 99.1245C236.228 99.1297 236.228 99.1401 236.228 99.1454H236.233C236.238 99.1454 236.238 99.1401 236.238 99.1401C236.275 98.9676 236.312 98.7951 236.343 98.6226C236.296 98.7951 236.259 98.9624 236.223 99.1245ZM236.223 99.1245C236.228 99.1297 236.228 99.1401 236.228 99.1454H236.233C236.238 99.1454 236.238 99.1401 236.238 99.1401C236.275 98.9676 236.312 98.7951 236.343 98.6226C236.296 98.7951 236.259 98.9624 236.223 99.1245ZM236.223 99.1245C236.228 99.1297 236.228 99.1401 236.228 99.1454H236.233C236.238 99.1454 236.238 99.1401 236.238 99.1401C236.275 98.9676 236.312 98.7951 236.343 98.6226C236.296 98.7951 236.259 98.9624 236.223 99.1245ZM236.223 99.1245C236.228 99.1297 236.228 99.1401 236.228 99.1454H236.233C236.238 99.1454 236.238 99.1401 236.238 99.1401C236.275 98.9676 236.312 98.7951 236.343 98.6226C236.296 98.7951 236.259 98.9624 236.223 99.1245ZM236.223 99.1245C236.228 99.1297 236.228 99.1401 236.228 99.1454H236.233C236.238 99.1454 236.238 99.1401 236.238 99.1401C236.275 98.9676 236.312 98.7951 236.343 98.6226C236.296 98.7951 236.259 98.9624 236.223 99.1245Z" fill="#FFC005"/>
<path d="M221.467 76.9309C223.783 76.9309 226.032 77.1766 228.176 77.6419C230.314 78.102 232.343 78.7817 234.236 79.6443C235.088 81.5213 235.763 83.5341 236.223 85.6515C236.693 87.8108 236.944 90.0798 236.944 92.4116C236.944 94.5499 236.735 96.6255 236.338 98.6174C236.338 98.6227 236.332 98.6279 236.332 98.6279C236.296 98.7952 236.254 98.9573 236.217 99.1246C236.181 98.9573 236.144 98.7952 236.102 98.6279C236.134 98.8004 236.17 98.9729 236.207 99.1455C230.602 97.9273 225.718 95.2243 222.199 91.5803C218.591 88.0617 215.925 83.2152 214.717 77.6524H214.722C214.732 77.6472 214.743 77.6472 214.753 77.6472C216.897 77.1766 219.151 76.9309 221.467 76.9309Z" fill="#FF733B"/>
<path d="M236.337 98.6279C236.306 98.8005 236.269 98.973 236.232 99.1455C236.232 99.1455 236.232 99.1507 236.227 99.1507H236.222C236.222 99.1455 236.222 99.1351 236.217 99.1298C236.259 98.9625 236.295 98.7952 236.337 98.6279Z" fill="#FFC005"/>
<path d="M214.716 77.6523C214.251 79.8011 214 82.0597 214 84.3863C214 89.0132 214.983 93.3631 216.714 97.1535C220.505 98.8788 224.855 99.8669 229.482 99.8669C231.809 99.8669 234.068 99.616 236.222 99.1507C236.217 99.1507 236.217 99.1454 236.217 99.1454C230.612 97.9273 225.728 95.2243 222.209 91.5802C218.601 88.0617 215.935 83.2151 214.727 77.6523H214.716Z" fill="#7188FF"/>
<defs>
<linearGradient id="paint0_linear_1_1030" x1="229.941" y1="585.951" x2="216.649" y2="570.791" gradientUnits="userSpaceOnUse">
<stop stop-color="#221ECA"/>
<stop offset="1" stop-color="#6461DA"/>
</linearGradient>
<linearGradient id="paint1_linear_1_1030" x1="250.423" y1="590.089" x2="247.931" y2="575.344" gradientUnits="userSpaceOnUse">
<stop stop-color="#93D8DE"/>
<stop offset="1" stop-color="#65C8D0"/>
</linearGradient>
<linearGradient id="paint2_linear_1_1030" x1="228.75" y1="568.98" x2="241.73" y2="553.404" gradientUnits="userSpaceOnUse">
<stop stop-color="#221ECA"/>
<stop offset="1" stop-color="#6461DA"/>
</linearGradient>
<linearGradient id="paint3_linear_1_1030" x1="254.805" y1="559.433" x2="239.229" y2="567.221" gradientUnits="userSpaceOnUse">
<stop stop-color="#93D8DE"/>
<stop offset="1" stop-color="#65C8D0"/>
</linearGradient>
<linearGradient id="paint4_linear_1_1030" x1="242.543" y1="572.032" x2="262.004" y2="572.032" gradientUnits="userSpaceOnUse">
<stop stop-color="#221ECA"/>
<stop offset="1" stop-color="#6461DA"/>
</linearGradient>
<linearGradient id="paint5_linear_1_1030" x1="225.103" y1="587.514" x2="237.564" y2="583.256" gradientUnits="userSpaceOnUse">
<stop stop-color="#93D8DE"/>
<stop offset="1" stop-color="#65C8D0"/>
</linearGradient>
<linearGradient id="paint6_linear_1_1030" x1="225.652" y1="560.417" x2="229.39" y2="575.682" gradientUnits="userSpaceOnUse">
<stop stop-color="#93D8DE"/>
<stop offset="1" stop-color="#65C8D0"/>
</linearGradient>
<linearGradient id="paint7_linear_1_1030" x1="246.018" y1="579.254" x2="234.492" y2="597.011" gradientUnits="userSpaceOnUse">
<stop stop-color="#221ECA"/>
<stop offset="1" stop-color="#6461DA"/>
</linearGradient>
<linearGradient id="paint8_linear_1_1030" x1="543.531" y1="181.534" x2="567.464" y2="209.274" gradientUnits="userSpaceOnUse">
<stop stop-color="#93D8DE"/>
<stop offset="1" stop-color="#65C8D0"/>
</linearGradient>
<linearGradient id="paint9_linear_1_1030" x1="601.069" y1="195.885" x2="582.575" y2="178.479" gradientUnits="userSpaceOnUse">
<stop stop-color="#93D8DE"/>
<stop offset="1" stop-color="#65C8D0"/>
</linearGradient>
<linearGradient id="paint10_linear_1_1030" x1="548.047" y1="176.904" x2="593.862" y2="176.904" gradientUnits="userSpaceOnUse">
<stop stop-color="#221ECA"/>
<stop offset="1" stop-color="#6461DA"/>
</linearGradient>
<linearGradient id="paint11_linear_1_1030" x1="589.657" y1="182.874" x2="566.268" y2="221.493" gradientUnits="userSpaceOnUse">
<stop stop-color="#221ECA"/>
<stop offset="1" stop-color="#6461DA"/>
</linearGradient>
</defs>
</svg>
