<svg width="34" height="34" viewBox="0 0 34 34" fill="none" xmlns="http://www.w3.org/2000/svg">
<g clip-path="url(#clip0_1_220)">
<path d="M20.1093 18.6632C24.6054 22.6967 27.2547 26.5764 27.5765 32.2443H6.42432C6.74608 26.5765 9.39532 22.6967 13.8915 18.6632L15.7468 16.9988L13.8915 15.3382C9.39532 11.3046 6.74608 7.42493 6.42432 1.75702H27.5765C27.2547 7.42493 24.6054 11.3047 20.1093 15.3382L18.254 16.9988L20.1093 18.6632Z" fill="#F6F9F9"/>
<path d="M6.22107 2.94281H27.78C28.5055 2.94281 29.0935 2.41524 29.0935 1.76449C29.0935 1.11375 28.5055 0.586243 27.78 0.586243H6.22107C5.4956 0.586243 4.90759 1.11382 4.90759 1.76456C4.90759 2.41531 5.4956 2.94281 6.22107 2.94281Z" fill="#2F4859"/>
<path d="M12.6355 25.4469C9.93247 26.8476 8.26758 29.4353 8.26758 32.2355H25.7327C25.7327 29.4352 24.0677 26.8476 21.3647 25.4469L17.7433 23.5703C17.7433 19.0218 17.7433 17.8834 17.7433 13.3349L20.3034 12.0083C22.0548 11.1008 23.2303 9.53478 23.5322 7.77301C23.6133 7.30011 23.2116 6.87061 22.6782 6.87061H11.3221C10.7887 6.87061 10.387 7.30004 10.4681 7.77301C10.7701 9.53471 11.9457 11.1008 13.697 12.0083L16.4346 13.427C16.4346 17.8936 16.4346 19.0115 16.4346 23.4783L12.6355 25.4469Z" fill="#F7BE56"/>
<path d="M27.78 31.0573H6.22107C5.4956 31.0573 4.90759 31.5848 4.90759 32.2356C4.90759 32.8862 5.4956 33.4139 6.22107 33.4139H27.78C28.5055 33.4139 29.0935 32.8863 29.0935 32.2356C29.0935 31.5849 28.5055 31.0573 27.78 31.0573Z" fill="#2F4859"/>
</g>
<defs>
<clipPath id="clip0_1_220">
<rect width="32.8276" height="32.8276" fill="white" transform="translate(0.586304 0.586243)"/>
</clipPath>
</defs>
</svg>
