<svg width="34" height="34" viewBox="0 0 34 34" fill="none" xmlns="http://www.w3.org/2000/svg">
<g clip-path="url(#clip0_1_231)">
<path d="M11.6907 10.4698L10.6398 8.64969L9.58767 8.57147L9.19989 9.48109L10.2515 11.3025C11.0069 11.4411 11.5682 11.1482 11.6907 10.4698Z" fill="#B9C1CB"/>
<path d="M22.3097 10.4698L23.3606 8.64969L24.4127 8.57147L24.8005 9.48109L23.7488 11.3025C22.9934 11.4411 22.4322 11.1482 22.3097 10.4698Z" fill="#B9C1CB"/>
<path d="M17.8546 7.63129C19.1735 7.25345 20.0946 6.03011 20.0946 4.65648C20.0946 2.95034 18.7065 1.56235 17.0004 1.56235C15.2943 1.56235 13.9062 2.95041 13.9062 4.65648C13.9062 6.03011 14.8273 7.25345 16.1462 7.63129L16.28 8.66292C14.3325 8.3147 12.9302 6.59991 12.9302 4.65641C12.9302 2.41215 14.7561 0.586243 17.0004 0.586243C19.2447 0.586243 21.0706 2.41215 21.0706 4.65641C21.0706 6.59709 19.6725 8.3097 17.7295 8.66138L17.8546 7.63129Z" fill="#DAE4EA"/>
<path d="M17 9.51085C17.3329 9.51085 17.6626 9.52643 17.9886 9.55694V5.49402H16.0114V9.55694C16.3374 9.52643 16.6671 9.51085 17 9.51085Z" fill="#B9C1CB"/>
<path d="M17 33.4137C23.6743 33.4137 29.0849 28.0031 29.0849 21.3288C29.0849 14.6545 23.6743 9.2439 17 9.2439C10.3257 9.2439 4.9151 14.6545 4.9151 21.3288C4.9151 28.0031 10.3257 33.4137 17 33.4137Z" fill="#DAE4EA"/>
<path d="M18.4649 3.54565H15.5356C15.3902 3.54565 15.2725 3.66344 15.2725 3.80879V5.5039C15.2725 5.64925 15.3902 5.76703 15.5356 5.76703H18.4649C18.6102 5.76703 18.728 5.64925 18.728 5.5039V3.80879C18.728 3.6635 18.6102 3.54565 18.4649 3.54565Z" fill="#DAE4EA"/>
<path d="M10.7892 8.56322L9.0497 9.56754C8.98424 9.60531 8.90056 9.58293 8.8628 9.51747L7.56297 7.26615C7.5252 7.20069 7.54758 7.11701 7.61304 7.07925L9.35258 6.07493C9.41805 6.03717 9.50172 6.05954 9.53948 6.12501L10.8393 8.37632C10.8771 8.44172 10.8547 8.52539 10.7892 8.56322Z" fill="#DAE4EA"/>
<path d="M23.2107 8.56322L24.9503 9.56754C25.0157 9.60531 25.0994 9.58293 25.1372 9.51747L26.437 7.26615C26.4748 7.20069 26.4524 7.11701 26.3869 7.07925L24.6474 6.07493C24.5819 6.03717 24.4982 6.05954 24.4605 6.12501L23.1607 8.37632C23.1228 8.44172 23.1453 8.52539 23.2107 8.56322Z" fill="#DAE4EA"/>
<path d="M16.9998 31.2168C22.4607 31.2168 26.8877 26.7899 26.8877 21.329C26.8877 15.8681 22.4607 11.4412 16.9998 11.4412C11.5389 11.4412 7.112 15.8681 7.112 21.329C7.112 26.7899 11.5389 31.2168 16.9998 31.2168Z" fill="#F6F9F9"/>
<path d="M25.2608 21.3289C25.2608 16.7971 21.5928 13.1059 17.0697 13.0681C17.0312 13.0678 16.9996 13.0993 16.9996 13.1377V21.3289H8.80852C8.77005 21.3289 8.73863 21.3605 8.73896 21.399C8.77672 25.922 12.4679 29.5901 16.9998 29.5901C17.0182 29.5901 17.0366 29.59 17.055 29.5899C21.5848 29.5601 25.2608 25.8658 25.2608 21.3289Z" fill="#FFC954"/>
<path d="M19.3246 13.4008C21.3464 14.9081 22.6581 17.3175 22.6581 20.0275C22.6581 24.5643 18.982 28.2586 14.4521 28.2884C14.4338 28.2885 14.4154 28.2886 14.3969 28.2886C13.59 28.2886 12.8099 28.1723 12.0721 27.9556C13.4487 28.9819 15.1545 29.59 16.9997 29.59C17.0182 29.59 17.0366 29.5899 17.0549 29.5898C21.5848 29.56 25.2609 25.8656 25.2609 21.3289C25.2608 17.5806 22.7516 14.4074 19.3246 13.4008Z" fill="#E1A729"/>
</g>
<defs>
<clipPath id="clip0_1_231">
<rect width="32.8276" height="32.8276" fill="white" transform="translate(0.586304 0.586243)"/>
</clipPath>
</defs>
</svg>
