<svg width="2009" height="1379" viewBox="0 0 2009 1379" fill="none" xmlns="http://www.w3.org/2000/svg" xmlns:xlink="http://www.w3.org/1999/xlink">
<g clip-path="url(#clip0_9_4)">
<path opacity="0.3" d="M249 274.922L304.36 317.948C305.554 318.876 307.306 318.195 307.559 316.704L315.993 267.025C316.27 265.396 318.29 264.786 319.422 265.99L342.664 290.709C343.838 291.958 345.937 291.247 346.111 289.541L354.556 206.632C354.765 204.582 357.562 204.149 358.381 206.04L393.785 287.822C394.572 289.64 397.238 289.331 397.589 287.382L402.571 259.663C402.914 257.753 405.504 257.402 406.343 259.152L423 293.902" stroke="#FF553E" stroke-width="3"/>
<path opacity="0.4" d="M1589 354.098C1574.66 332.938 1544.82 281.294 1540.12 244M1573.36 366C1563.58 360.049 1535.63 349.337 1502 354.098" stroke="#FF553E" stroke-width="4"/>
<path opacity="0.4" d="M1860 100.058C1881.52 99.7273 1918.99 100.653 1896.75 107.003C1868.94 114.94 1849.07 134.784 1872.91 130.815C1891.98 127.64 1918.6 124.201 1929.52 122.878C1940.45 120.563 1955.74 120.1 1929.52 136.768C1896.75 157.604 1877.88 175.462 1890.79 176.455C1903.7 177.447 1910.65 170.502 1905.69 187.368C1900.72 204.235 1894.76 216.141 1922.57 234" stroke="#FF553E" stroke-width="3"/>
<path opacity="0.5" d="M636 833.14C645.447 819.298 646.825 796.612 646.333 787C659.324 799.688 680.286 810.55 689.143 814.395C677.333 824.777 676.349 841.791 677.333 849C660.8 836.312 642.889 833.14 636 833.14Z" stroke="#D26D60" stroke-width="3"/>
<path opacity="0.5" d="M1281.04 698.019C1280.66 697.284 1279.75 696.999 1279.02 697.382C1278.28 697.765 1278 698.671 1278.38 699.406L1281.04 698.019ZM1246.9 764.842L1246.6 763.372L1246.9 764.842ZM1176.07 813.785C1175.42 814.303 1175.32 815.247 1175.84 815.894L1184.28 826.428C1184.8 827.074 1185.74 827.178 1186.39 826.66C1187.03 826.142 1187.14 825.198 1186.62 824.552L1179.11 815.188L1188.48 807.683C1189.12 807.165 1189.23 806.221 1188.71 805.575C1188.19 804.928 1187.25 804.824 1186.6 805.342L1176.07 813.785ZM1278.38 699.406C1282.96 708.181 1286.78 721.856 1283.61 734.43C1282.04 740.682 1278.74 746.683 1272.9 751.729C1267.05 756.784 1258.58 760.941 1246.6 763.372L1247.2 766.312C1259.56 763.805 1268.53 759.467 1274.86 753.999C1281.2 748.521 1284.81 741.968 1286.52 735.163C1289.93 721.623 1285.82 707.171 1281.04 698.019L1278.38 699.406ZM1246.6 763.372C1231.64 766.406 1221.16 764.253 1214.39 759.861C1207.63 755.475 1204.38 748.74 1204.06 742.177C1203.74 735.581 1206.38 729.267 1211.26 725.663C1216.08 722.108 1223.38 720.978 1232.88 725.326L1234.13 722.598C1223.87 717.904 1215.36 718.906 1209.48 723.249C1203.66 727.544 1200.7 734.895 1201.06 742.323C1201.42 749.784 1205.13 757.432 1212.76 762.378C1220.38 767.32 1231.72 769.451 1247.2 766.312L1246.6 763.372ZM1232.88 725.326C1242.26 729.615 1247.54 737.566 1249.2 747.095C1250.87 756.667 1248.88 767.835 1243.61 778.307C1233.08 799.228 1209.63 817.042 1177.17 813.465L1176.84 816.446C1210.71 820.18 1235.27 801.539 1246.29 779.656C1251.79 768.727 1253.96 756.906 1252.16 746.579C1250.35 736.209 1244.52 727.351 1234.13 722.598L1232.88 725.326Z" fill="#D26D60"/>
<path d="M568.729 484.306C570.19 480.455 575.671 477.487 578.229 476.484C589.921 471.671 608.738 469.264 616.594 470.467C624.45 471.671 615.863 474.077 608.373 476.484C600.882 478.891 606.363 480.094 613.123 478.891C619.882 477.687 633.95 476.484 646.007 475.882C658.065 475.281 645.825 474.077 633.95 474.077C622.075 474.077 622.257 471.671 626.459 470.467C630.661 469.264 640.161 464.45 651.305 465.052C662.45 465.654 688.757 466.857 700.084 471.069C711.411 475.281 734.796 486.713 740.459 490.323C746.123 493.933 745.392 504.161 735.344 498.144C725.296 492.128 704.469 481.297 658.796 479.492C613.123 477.687 578.411 487.916 574.757 492.128C571.104 496.339 568.546 496.339 570.007 492.729C571.469 489.119 571.834 488.518 570.373 489.721C568.911 490.924 566.902 489.119 568.729 484.306Z" fill="#FF733B"/>
<rect width="135.053" height="157.193" transform="matrix(-0.982934 0.183961 0.183961 0.982934 506.748 228)" fill="url(#pattern0)"/>
<rect x="1249" y="568" width="178" height="191"/>
<path d="M1543.34 505.624L1546.82 506.556L1555.55 473.961L1552.07 473.029C1550.62 472.64 1549.13 473.501 1548.74 474.952L1541.41 502.293C1541.02 503.744 1541.89 505.235 1543.34 505.624Z" fill="#010101"/>
<path d="M1522.24 584.37L1525.72 585.302L1538.52 537.538L1535.04 536.606C1533.59 536.217 1532.1 537.077 1531.71 538.529L1520.32 581.045C1519.93 582.491 1520.79 583.981 1522.24 584.37Z" fill="#010101"/>
<path d="M1508.6 635.278L1512.08 636.21L1524.88 588.446L1521.4 587.513C1519.95 587.124 1518.45 587.985 1518.07 589.437L1506.67 631.953C1506.29 633.398 1507.15 634.889 1508.6 635.278Z" fill="#010101"/>
<path d="M1980.69 629.935L1977.21 629.003L1953.37 717.982L1956.85 718.915C1958.3 719.304 1959.79 718.443 1960.18 716.991L1982.61 633.267C1983 631.815 1982.14 630.324 1980.69 629.935Z" fill="#010101"/>
<path d="M1397.33 1277.34L1722.3 1364.42C1753.38 1372.75 1785.32 1354.3 1793.65 1323.23L2003.16 541.322C2011.49 510.244 1993.05 478.301 1961.97 469.974L1637 382.898C1605.92 374.571 1573.98 393.013 1565.65 424.091L1356.14 1205.99C1347.8 1237.07 1366.25 1269.02 1397.33 1277.34Z" fill="#414141"/>
<g opacity="0.3">
<path opacity="0.3" d="M1366.81 1252.19C1363.94 1248.43 1361.66 1244.19 1360 1239.73C1358.36 1235.26 1357.39 1230.55 1356.95 1225.81C1356.51 1221.06 1356.73 1216.26 1357.55 1211.56L1357.86 1209.79L1358.26 1208.05C1358.53 1206.88 1358.83 1205.75 1359.14 1204.61L1360.94 1197.77L1368.16 1170.45L1375.41 1143.14L1390 1088.53L1404.68 1033.95L1434.11 924.789C1439.03 906.603 1443.88 888.396 1448.72 870.189L1463.28 815.573L1492.41 706.34L1521.75 597.161L1551.08 487.981L1565.8 433.407L1567.64 426.584L1568.1 424.882L1568.61 423.167C1568.79 422.598 1568.94 422.02 1569.14 421.458L1569.75 419.776C1570.13 418.642 1570.65 417.566 1571.1 416.467C1571.57 415.372 1572.14 414.321 1572.65 413.244C1573.25 412.207 1573.8 411.153 1574.43 410.139C1575.08 409.144 1575.68 408.108 1576.4 407.156C1579.16 403.273 1582.37 399.698 1586.02 396.638C1589.67 393.586 1593.77 391.039 1598.19 389.323L1598.28 389.516C1594.24 391.943 1590.39 394.576 1586.84 397.596C1583.28 400.604 1580.15 404.104 1577.48 407.908C1576.78 408.839 1576.2 409.854 1575.57 410.83C1574.96 411.817 1574.42 412.856 1573.85 413.866C1573.35 414.915 1572.8 415.946 1572.34 417.012C1571.91 418.091 1571.41 419.14 1571.04 420.25L1570.45 421.892C1570.25 422.437 1570.11 423.004 1569.94 423.562L1569.45 425.232L1569 426.937L1567.19 433.766L1552.64 488.385L1523.45 597.604L1494.27 706.825L1464.89 815.99L1450.18 870.568C1445.28 888.759 1440.37 906.95 1435.54 925.161L1406.45 1034.4L1391.87 1089.02L1377.2 1143.6L1369.82 1170.88L1362.41 1198.16L1360.56 1204.98C1360.25 1206.11 1359.94 1207.25 1359.67 1208.38L1359.27 1210.07L1358.95 1211.79C1358.12 1216.36 1357.87 1221.05 1358.27 1225.69C1358.65 1230.32 1359.61 1234.91 1361.13 1239.32C1362.64 1243.73 1364.63 1247.98 1366.98 1252.05L1366.81 1252.19Z" fill="white"/>
</g>
<g opacity="0.3">
<path opacity="0.3" d="M1761.11 1357.67C1765.19 1355.32 1769.03 1352.63 1772.54 1349.57C1776.05 1346.52 1779.18 1343.02 1781.83 1339.19C1784.49 1335.37 1786.62 1331.19 1788.19 1326.82L1788.77 1325.17L1789.27 1323.5C1789.61 1322.39 1789.9 1321.25 1790.2 1320.11L1792.01 1313.28L1799.22 1285.95L1806.48 1258.64L1821.07 1204.03L1835.75 1149.45L1865.17 1040.29C1870.09 1022.11 1874.94 1003.9 1879.79 985.692L1894.34 931.076L1923.48 821.843L1952.82 712.664L1982.15 603.484L1996.86 548.91L1998.7 542.087L1999.17 540.385L1999.57 538.688C1999.7 538.118 1999.86 537.563 1999.97 536.987L2000.28 535.27C2000.52 534.132 2000.61 532.966 2000.77 531.814C2000.91 530.662 2000.95 529.496 2001.04 528.337C2001.05 527.176 2001.1 526.014 2001.07 524.847C2001 523.687 2001.01 522.518 2000.87 521.363C2000.46 516.732 1999.5 512.136 1997.92 507.753C1996.36 503.36 1994.34 499.155 1992.05 495.031L1992.23 494.912C1995.2 498.608 1997.47 502.862 1999.11 507.332C2000.75 511.808 2001.74 516.511 2002.19 521.253C2002.34 522.436 2002.34 523.632 2002.4 524.82C2002.44 526.014 2002.4 527.203 2002.39 528.398C2002.3 529.588 2002.27 530.782 2002.12 531.965C2001.97 533.145 2001.87 534.334 2001.64 535.505L2001.33 537.267C2001.22 537.856 2001.06 538.43 2000.93 539.012L2000.51 540.753L2000.06 542.458L1998.25 549.287L1983.7 603.906L1954.51 713.125L1925.33 822.346L1895.94 931.511L1881.24 986.089C1876.34 1004.28 1871.43 1022.47 1866.6 1040.68L1837.5 1149.93L1822.93 1204.54L1808.26 1259.12L1800.88 1286.4L1793.47 1313.68L1791.62 1320.5C1791.32 1321.63 1791.01 1322.77 1790.65 1323.91L1790.13 1325.63L1789.52 1327.31C1787.88 1331.79 1785.66 1336.06 1782.91 1339.95C1780.16 1343.84 1776.97 1347.43 1773.31 1350.48C1769.64 1353.52 1765.56 1356.05 1761.19 1357.87L1761.11 1357.67Z" fill="white"/>
</g>
<path d="M1399.01 1271.1C1371.42 1263.71 1354.99 1235.25 1362.38 1207.66L1571.89 425.762C1579.28 398.176 1607.74 381.745 1635.33 389.136L1960.3 476.212C1987.88 483.604 2004.32 512.064 1996.92 539.65L1787.41 1321.55C1780.02 1349.14 1751.56 1365.57 1723.98 1358.18L1399.01 1271.1Z" fill="#010101"/>
<path d="M1399.37 1269.71C1372.55 1262.53 1356.57 1234.86 1363.76 1208.03L1573.27 426.133C1580.46 399.309 1608.13 383.334 1634.95 390.522L1959.92 477.598C1986.75 484.785 2002.72 512.454 1995.54 539.279L1786.03 1321.18C1778.84 1348 1751.17 1363.98 1724.35 1356.79L1399.37 1269.71V1269.71Z" fill="#1C1C1C"/>
<path d="M1402.72 1257.24C1382.77 1251.89 1370.9 1231.32 1376.24 1211.38L1585.75 429.479C1591.1 409.54 1611.67 397.662 1631.61 403.005L1956.58 490.081C1976.52 495.423 1988.4 515.996 1983.05 535.935L1773.54 1317.83C1768.2 1337.77 1747.63 1349.65 1727.69 1344.31L1402.72 1257.23L1402.72 1257.24Z" fill="#010101"/>
<path d="M1956.39 490.774L1631.42 403.7C1611.83 398.451 1591.69 410.078 1586.44 429.669L1376.93 1211.57C1371.69 1231.16 1383.31 1251.3 1402.9 1256.55L1727.87 1343.62C1747.47 1348.87 1767.6 1337.25 1772.85 1317.66L1982.37 535.749C1987.61 516.157 1975.98 496.024 1956.39 490.774Z" fill="url(#pattern1)"/>
<path d="M57.0588 567.148L59.6129 566.464L53.2012 542.535L50.6471 543.219C49.5815 543.505 48.9496 544.599 49.2352 545.665L54.6133 565.736C54.8988 566.802 55.9931 567.434 57.0588 567.148Z" fill="#010101"/>
<path d="M72.5487 624.957L75.1027 624.273L65.707 589.208L63.153 589.892C62.0873 590.177 61.4555 591.272 61.741 592.337L70.1043 623.55C70.3887 624.611 71.483 625.243 72.5487 624.957Z" fill="#010101"/>
<path d="M82.5642 662.33L85.1182 661.646L75.7225 626.58L73.1685 627.265C72.1028 627.55 71.471 628.645 71.7565 629.71L80.1198 660.922C80.4042 661.984 81.4985 662.615 82.5642 662.33Z" fill="#010101"/>
<path d="M380.743 485.646L378.189 486.33L395.692 551.652L398.246 550.968C399.312 550.682 399.944 549.588 399.658 548.522L383.189 487.058C382.903 485.992 381.809 485.36 380.743 485.646Z" fill="#010101"/>
<path d="M247.5 1111.38L486.07 1047.45C508.884 1041.34 522.424 1017.89 516.31 995.076L362.503 421.06C356.39 398.245 332.939 384.706 310.125 390.819L71.5552 454.744C48.7405 460.857 35.2014 484.307 41.3146 507.122L195.121 1081.13C201.231 1103.95 224.681 1117.49 247.5 1111.38Z" fill="#414141"/>
<g opacity="0.3">
<path opacity="0.3" d="M218.858 1106.59C215.654 1105.25 212.655 1103.39 209.962 1101.17C207.271 1098.93 204.931 1096.29 202.912 1093.44C200.891 1090.58 199.266 1087.44 198.06 1084.16L197.611 1082.92L197.227 1081.66C196.964 1080.82 196.741 1079.99 196.517 1079.16L195.157 1074.15L189.717 1054.13L184.303 1034.1L173.532 994.026L162.832 953.935L141.471 873.737C137.926 860.367 134.324 847.013 130.722 833.658L119.93 793.591L98.3569 713.45L76.9337 633.269L55.5061 553.088L44.8281 512.991L43.4942 507.977L43.1635 506.726L42.8589 505.448C42.7632 505.02 42.6456 504.599 42.5675 504.167L42.339 502.873C42.1609 502.015 42.0964 501.14 41.9823 500.274C41.8814 499.404 41.8545 498.529 41.7856 497.655C41.7819 496.779 41.7462 495.906 41.7757 495.029C41.8252 494.157 41.8259 493.279 41.9329 492.41C42.2603 488.929 42.9918 485.476 44.1884 482.192C45.3905 478.91 47.0598 475.787 49.2402 473.074L49.3722 473.162C47.6913 476.189 46.2106 479.276 45.0594 482.501C43.9016 485.719 43.1964 489.093 42.8942 492.492C42.7913 493.341 42.7946 494.199 42.7537 495.05C42.7271 495.902 42.768 496.76 42.7746 497.612C42.842 498.463 42.873 499.318 42.9724 500.165C43.0906 501.011 43.158 501.861 43.3313 502.702L43.5604 503.962C43.635 504.381 43.7547 504.793 43.848 505.211L44.1519 506.451L44.4914 507.701L45.843 512.71L56.6443 552.774L78.1776 632.926L99.7152 713.077L121.103 793.268L131.79 833.363C135.348 846.729 138.906 860.095 142.521 873.446L164.12 953.58L174.899 993.65L185.608 1033.74L190.934 1053.79L196.233 1073.85L197.559 1078.87C197.778 1079.7 197.998 1080.54 198.244 1081.35L198.606 1082.58L199.034 1083.79C200.187 1087 201.75 1090.07 203.705 1092.88C205.646 1095.68 207.943 1098.25 210.528 1100.5C213.108 1102.74 215.929 1104.71 218.922 1106.44L218.858 1106.59Z" fill="white"/>
</g>
<g opacity="0.3">
<path opacity="0.3" d="M508.261 1028.92C509.994 1025.93 511.447 1022.81 512.558 1019.58C513.67 1016.34 514.376 1012.97 514.653 1009.57C514.944 1006.16 514.763 1002.72 514.156 999.363L513.922 998.105L513.622 996.859C513.433 996.032 513.2 995.197 512.971 994.362L511.611 989.355L506.171 969.334L500.757 949.305L489.986 909.233L479.286 869.141L457.925 788.943C454.38 775.573 450.778 762.219 447.176 748.865L436.384 708.798L414.811 628.656L393.388 548.475L371.96 468.295L361.282 428.197L359.948 423.184L359.618 421.932L359.255 420.703C359.127 420.294 359.026 419.882 358.88 419.477L358.448 418.271C358.183 417.46 357.811 416.686 357.49 415.895C357.157 415.111 356.752 414.355 356.385 413.585C355.965 412.844 355.573 412.085 355.122 411.356C354.657 410.641 354.231 409.896 353.722 409.211C351.756 406.42 349.463 403.849 346.851 401.641C344.242 399.424 341.416 397.491 338.446 395.709L338.517 395.568C341.762 396.827 344.769 398.697 347.451 400.938C350.134 403.183 352.493 405.807 354.518 408.658C355.045 409.357 355.484 410.117 355.963 410.848C356.427 411.592 356.832 412.366 357.268 413.127C357.645 413.918 358.064 414.688 358.407 415.493C358.741 416.3 359.118 417.091 359.398 417.923L359.846 419.157C359.995 419.57 360.104 419.994 360.234 420.412L360.61 421.671L360.949 422.92L362.301 427.929L373.102 467.994L394.635 548.146L416.173 628.296L437.561 708.487L448.248 748.582C451.806 761.948 455.363 775.315 458.978 788.665L480.578 868.8L491.357 908.87L502.066 948.959L507.392 969.011L512.691 989.071L514.016 994.087C514.239 994.919 514.463 995.755 514.656 996.615L514.952 997.895L515.18 999.188C515.779 1002.64 515.941 1006.17 515.619 1009.65C515.296 1013.13 514.585 1016.59 513.378 1019.87C512.165 1023.15 510.497 1026.26 508.386 1029.02L508.261 1028.92Z" fill="white"/>
</g>
<path d="M246.274 1106.8C226.022 1112.22 205.129 1100.16 199.702 1079.91L45.896 505.895C40.4696 485.643 52.5323 464.75 72.7841 459.323L311.354 395.399C331.606 389.972 352.499 402.035 357.925 422.287L511.731 996.299C517.158 1016.55 505.095 1037.44 484.843 1042.87L246.274 1106.8Z" fill="#010101"/>
<path d="M246 1105.78C226.308 1111.05 205.995 1099.33 200.719 1079.63L46.9125 505.622C41.6359 485.93 53.3634 465.617 73.0559 460.341L311.626 396.416C331.318 391.14 351.631 402.867 356.907 422.56L510.713 996.572C515.99 1016.26 504.263 1036.58 484.57 1041.85L246 1105.78V1105.78Z" fill="#1C1C1C"/>
<path d="M243.548 1096.62C228.906 1100.54 213.808 1091.82 209.886 1077.18L56.0782 503.167C52.1562 488.53 60.876 473.426 75.5133 469.504L314.083 405.58C328.72 401.658 343.823 410.378 347.746 425.015L501.552 999.027C505.474 1013.66 496.754 1028.77 482.117 1032.69L243.547 1096.61L243.548 1096.62Z" fill="#010101"/>
<path d="M314.213 406.092L75.6479 470.016C61.266 473.869 52.7299 488.654 56.5835 503.036L210.39 1077.05C214.243 1091.43 229.028 1099.97 243.41 1096.11L481.98 1032.19C496.362 1028.33 504.898 1013.55 501.044 999.168L347.237 425.151C343.379 410.77 328.595 402.239 314.213 406.092Z"/>
</g>
<defs>
<pattern id="pattern0" patternContentUnits="objectBoundingBox" width="1" height="1">
<use xlink:href="#image0_9_4" transform="matrix(0.00135974 0 0 0.00116822 -0.000383045 0)"/>
</pattern>
<pattern id="pattern1" patternContentUnits="objectBoundingBox" width="1" height="1">
<use xlink:href="#image1_9_4" transform="matrix(0.00133333 0 0 0.000618976 0 -0.00260875)"/>
</pattern>
<clipPath id="clip0_9_4">
<rect width="2022" height="1379" fill="white"/>
</clipPath>
</defs>
</svg>
